<?xml version="1.0" encoding="UTF-8"?>
<!DOCTYPE svg PUBLIC "-//W3C//DTD SVG 1.1//EN" "http://www.w3.org/Graphics/SVG/1.1/DTD/svg11.dtd">
<svg version="1.2" width="356.8mm" height="152.2mm" viewBox="0 0 35680 15220" preserveAspectRatio="xMidYMid" fill-rule="evenodd" clip-path="url(#presentation_clip_path)" stroke-width="28.222" stroke-linejoin="round" xmlns="http://www.w3.org/2000/svg" xmlns:ooo="http://xml.openoffice.org/svg/export" xmlns:xlink="http://www.w3.org/1999/xlink" xml:space="preserve">
 <defs class="ClipPathGroup">
  <clipPath id="presentation_clip_path" clipPathUnits="userSpaceOnUse">
   <rect x="0" y="0" width="35680" height="15220"/>
  </clipPath>
 </defs>
 <defs class="TextShapeIndex">
  <g ooo:slide="id1" ooo:id-list="id3 id4 id5 id6 id7 id8 id9 id10 id11 id12 id13 id14 id15 id16 id17 id18 id19 id20 id21 id22 id23 id24 id25 id26 id27 id28 id29 id30 id31 id32 id33 id34 id35 id36 id37 id38 id39 id40 id41 id42 id43 id44 id45 id46 id47 id48 id49 id50 id51 id52 id53 id54 id55 id56 id57 id58 id59 id60 id61 id62 id63 id64"/>
 </defs>
 <defs class="EmbeddedBulletChars">
  <g id="bullet-char-template(57356)" transform="scale(0.00048828125,-0.00048828125)">
   <path d="M 580,1141 L 1163,571 580,0 -4,571 580,1141 Z"/>
  </g>
  <g id="bullet-char-template(57354)" transform="scale(0.00048828125,-0.00048828125)">
   <path d="M 8,1128 L 1137,1128 1137,0 8,0 8,1128 Z"/>
  </g>
  <g id="bullet-char-template(10146)" transform="scale(0.00048828125,-0.00048828125)">
   <path d="M 174,0 L 602,739 174,1481 1456,739 174,0 Z M 1358,739 L 309,1346 659,739 1358,739 Z"/>
  </g>
  <g id="bullet-char-template(10132)" transform="scale(0.00048828125,-0.00048828125)">
   <path d="M 2015,739 L 1276,0 717,0 1260,543 174,543 174,936 1260,936 717,1481 1274,1481 2015,739 Z"/>
  </g>
  <g id="bullet-char-template(10007)" transform="scale(0.00048828125,-0.00048828125)">
   <path d="M 0,-2 C -7,14 -16,27 -25,37 L 356,567 C 262,823 215,952 215,954 215,979 228,992 255,992 264,992 276,990 289,987 310,991 331,999 354,1012 L 381,999 492,748 772,1049 836,1024 860,1049 C 881,1039 901,1025 922,1006 886,937 835,863 770,784 769,783 710,716 594,584 L 774,223 C 774,196 753,168 711,139 L 727,119 C 717,90 699,76 672,76 641,76 570,178 457,381 L 164,-76 C 142,-110 111,-127 72,-127 30,-127 9,-110 8,-76 1,-67 -2,-52 -2,-32 -2,-23 -1,-13 0,-2 Z"/>
  </g>
  <g id="bullet-char-template(10004)" transform="scale(0.00048828125,-0.00048828125)">
   <path d="M 285,-33 C 182,-33 111,30 74,156 52,228 41,333 41,471 41,549 55,616 82,672 116,743 169,778 240,778 293,778 328,747 346,684 L 369,508 C 377,444 397,411 428,410 L 1163,1116 C 1174,1127 1196,1133 1229,1133 1271,1133 1292,1118 1292,1087 L 1292,965 C 1292,929 1282,901 1262,881 L 442,47 C 390,-6 338,-33 285,-33 Z"/>
  </g>
  <g id="bullet-char-template(9679)" transform="scale(0.00048828125,-0.00048828125)">
   <path d="M 813,0 C 632,0 489,54 383,161 276,268 223,411 223,592 223,773 276,916 383,1023 489,1130 632,1184 813,1184 992,1184 1136,1130 1245,1023 1353,916 1407,772 1407,592 1407,412 1353,268 1245,161 1136,54 992,0 813,0 Z"/>
  </g>
  <g id="bullet-char-template(8226)" transform="scale(0.00048828125,-0.00048828125)">
   <path d="M 346,457 C 273,457 209,483 155,535 101,586 74,649 74,723 74,796 101,859 155,911 209,963 273,989 346,989 419,989 480,963 531,910 582,859 608,796 608,723 608,648 583,586 532,535 482,483 420,457 346,457 Z"/>
  </g>
  <g id="bullet-char-template(8211)" transform="scale(0.00048828125,-0.00048828125)">
   <path d="M -4,459 L 1135,459 1135,606 -4,606 -4,459 Z"/>
  </g>
 </defs>
 <defs class="TextEmbeddedBitmaps"/>
 <g>
  <g id="id2" class="Master_Slide">
   <g id="bg-id2" class="Background"/>
   <g id="bo-id2" class="BackgroundObjects"/>
  </g>
 </g>
 <g class="SlideGroup">
  <g>
   <g id="id1" class="Slide" clip-path="url(#presentation_clip_path)">
    <g class="Page">
     <g class="Group">
      <g class="com.sun.star.drawing.ClosedBezierShape">
       <g id="id3">
        <path fill="rgb(0,0,0)" stroke="none" d="M 0,8852 C 13,8604 64,8330 152,8029 228,7791 305,7553 390,7277 495,6963 609,6625 747,6140 L 809,5850 C 1123,4785 1404,3848 1518,3572 1632,3258 1822,2968 2046,2721 2227,2530 2817,1941 3235,1579 3730,1165 3464,1831 3921,1831 4120,1831 4325,1855 4525,1917 5096,2078 5538,2478 5829,3082 6005,3444 6104,3857 6133,4285 6385,4171 6647,4109 6913,4109 7118,4109 7308,4133 7508,4195 7760,4271 8012,4723 8012,4723 8012,4723 8964,3781 9392,3405 9911,2958 10125,4547 10125,4547 10125,4547 11176,3643 11743,3334 12390,2968 12100,4847 12100,5084 12247,4799 12199,4523 12437,4333 12742,4095 13222,3672 13717,3367 14298,3020 14498,4186 14702,4147 14840,4109 15130,4086 15435,4086 15725,4086 16144,4109 16472,4233 16710,4323 16886,4433 17000,4561 17053,4523 17105,4485 17143,4447 17457,4209 17914,4086 18418,4086 18837,4086 19241,4171 19555,4333 19869,4499 20022,4623 20188,4923 20288,4809 21235,3919 22006,3482 22515,3206 22524,3445 22981,3558 23485,3682 23728,4561 23994,4975 24285,4471 24775,4048 25446,4095 25760,4124 26040,4271 26202,4523 26278,4623 26331,4737 26354,4861 26559,4533 26963,4048 27710,4124 28001,4147 28215,4271 28367,4471 28377,4499 28391,4509 28405,4533 28672,4309 28947,4209 29214,4157 29352,4133 29628,4095 29956,4095 30213,4095 30565,4109 30908,4195 31136,4247 31322,4347 31464,4485 31702,4285 31969,4195 32221,4147 32359,4124 32640,4086 32968,4086 33220,4086 33572,4095 33915,4186 34510,4333 35951,4347 35456,4999 35228,5298 34633,5836 34471,6012 34333,6150 34129,6226 33929,6288 33901,6302 33862,6302 33824,6312 33862,6340 33891,6364 33915,6402 34091,6625 35090,6702 34762,7092 34395,7529 33991,7867 33724,8119 33525,8304 33272,8457 32968,8457 32968,8457 32906,8633 32792,8718 32892,8771 32954,8856 32778,9056 32349,9560 31945,9883 31702,10098 31512,10259 31246,10435 30893,10411 30579,10383 30299,10183 30137,9936 29909,9593 29856,9070 29985,8419 29970,8419 29809,8980 29794,9008 29428,9508 28681,10459 27986,10411 27482,10373 27292,10174 27125,9922 27040,9798 26987,9660 26949,9484 26483,10059 25636,10559 24637,10359 23980,10235 23523,9898 23295,9370 22753,9869 22044,10121 21173,10145 21083,10345 21730,10473 21121,11125 20907,11363 20226,12000 20112,12100 19907,12262 19793,12352 19655,12390 19631,13103 19655,13527 19693,13641 L 19845,13679 C 19845,13679 20110,13931 19983,14055 19857,14178 18946,15044 18837,15134 L 18823,15134 C 18761,15182 18694,15206 18608,15206 18532,15206 18404,15196 18099,14968 17999,15006 17809,15134 17671,15196 17633,15206 17585,15220 17547,15220 17433,15220 17317,15158 17252,15058 17188,14958 17181,14830 17243,14721 17290,14606 17509,14293 17571,14178 17547,14140 17495,14079 17457,14031 16976,14554 16558,14996 16001,15144 15825,15182 15649,15206 15487,15206 15116,15206 14764,15096 14498,14930 14207,15134 13855,15182 13665,15182 L 13536,15182 C 13008,15182 12613,15082 12375,14906 L 12352,14930 C 12223,15068 12023,15144 11805,15144 11657,15144 11514,15106 11414,15030 11253,14930 11138,14759 11062,14606 10920,14859 10658,15168 10225,15168 L 10201,15168 C 9987,15158 9820,15082 9697,14930 9668,14897 9644,14859 9621,14806 9454,15020 9188,15196 8821,15196 8745,15196 8683,15196 8607,15182 8407,15144 8241,15030 8127,14868 8089,14806 8050,14730 8027,14644 7836,14820 7608,14968 7318,15068 7118,15144 6890,15182 6661,15182 6081,15182 5500,14930 5219,14278 5029,13831 5005,13256 5143,12704 5248,12276 5396,12000 5738,11624 6319,10973 6675,10687 7066,10397 7194,10297 7408,10274 7660,10297 L 8203,10107 C 8012,9883 7927,9546 7898,9132 7308,9907 6509,10397 5691,10397 5486,10397 5286,10375 5082,10312 4676,10185 4349,9869 4144,9446 3930,8994 3868,8404 3944,7781 3778,7829 3602,7881 3426,7905 3326,7919 3402,8395 2998,8918 2717,9284 1932,10007 1670,10159 1489,10274 1275,10321 1085,10321 1023,10321 961,10321 899,10312 771,10297 442,10197 214,9831 88,9631 17,9392 0,9113 L 0,8852 Z"/>
       </g>
      </g>
      <g class="com.sun.star.drawing.ClosedBezierShape">
       <g id="id4">
        <path fill="rgb(253,128,184)" stroke="none" d="M 33196,3358 C 33458,3306 34205,3244 34824,3405 35409,3558 35609,3957 35556,4371 35494,4809 35257,5161 34814,5275 34648,5313 34410,5322 34219,5322 34724,5360 34976,5826 34914,6378 34852,6901 34419,7391 33877,7391 L 33320,7391 C 33030,8328 32763,9422 31831,9332 31070,9270 30694,8480 31198,6925 31474,6074 31626,5161 31955,4423 32321,3572 32854,3434 33196,3358 Z"/>
       </g>
      </g>
      <g class="com.sun.star.drawing.ClosedBezierShape">
       <g id="id5">
        <path fill="rgb(13,0,0)" stroke="none" d="M 33220,3482 C 32939,3534 32435,3643 32069,4471 31878,4923 31740,5422 31602,5964 31512,6288 31426,6640 31312,6963 31031,7829 31006,8520 31260,8894 31386,9081 31579,9194 31831,9208 L 31916,9208 C 32625,9208 32892,8357 33144,7529 33158,7467 33182,7415 33196,7353 33206,7301 33258,7268 33311,7268 L 33862,7268 C 34372,7268 34724,6801 34776,6364 34814,6088 34747,5826 34609,5660 34510,5551 34395,5474 34105,5436 33862,5413 33739,5375 33763,5313 33786,5251 33953,5251 34196,5237 34600,5213 34686,5175 34762,5161 35128,5061 35356,4771 35409,4361 35456,3948 35228,3643 34762,3534 34548,3458 34243,3434 33915,3434 33625,3434 33358,3458 33220,3482 Z M 31817,9470 C 31488,9446 31236,9294 31060,9046 30756,8604 30770,7867 31070,6901 31174,6578 31260,6240 31350,5912 31488,5360 31626,4847 31831,4385 32197,3543 32702,3344 33158,3258 33296,3234 33572,3196 33901,3196 34143,3196 34510,3206 34852,3296 35447,3444 35747,3857 35670,4395 35594,4908 35295,5275 34838,5398 34800,5413 34776,5413 34738,5422 34762,5451 34800,5474 34824,5512 35004,5736 35076,6050 35042,6402 34976,6954 34524,7529 33877,7529 L 33410,7529 C 33396,7553 33396,7591 33382,7615 33120,8480 32816,9470 31931,9470 L 31817,9470 Z"/>
       </g>
      </g>
      <g class="com.sun.star.drawing.ClosedBezierShape">
       <g id="id6">
        <path fill="rgb(253,128,184)" stroke="none" d="M 30185,3358 C 30451,3306 31198,3244 31817,3405 32397,3558 32602,3957 32549,4371 32487,4809 32245,5161 31802,5275 31640,5313 31398,5322 31212,5322 31717,5360 31983,5826 31907,6378 31840,6901 31412,7391 30870,7391 L 30313,7391 C 30023,8328 29756,9422 28819,9332 28062,9270 27682,8480 28191,6925 28467,6074 28619,5161 28947,4423 29314,3572 29847,3434 30185,3358 Z"/>
       </g>
      </g>
      <g class="com.sun.star.drawing.ClosedBezierShape">
       <g id="id7">
        <path fill="rgb(13,0,0)" stroke="none" d="M 30213,3482 C 29932,3533 29428,3643 29062,4471 28871,4923 28733,5422 28595,5964 28505,6288 28415,6640 28300,6963 28024,7829 28001,8518 28253,8894 28377,9079 28567,9194 28819,9208 L 28909,9208 C 29618,9208 29885,8357 30137,7529 30146,7467 30175,7415 30185,7353 30199,7301 30251,7268 30299,7268 L 30855,7268 C 31360,7268 31717,6801 31764,6364 31802,6088 31740,5826 31602,5660 31503,5551 31388,5474 31098,5436 30855,5413 30732,5375 30756,5313 30779,5251 30946,5251 31184,5237 31588,5213 31679,5175 31755,5161 32121,5061 32349,4771 32397,4361 32449,3948 32221,3643 31755,3534 31541,3458 31236,3434 30908,3434 30618,3434 30351,3457 30213,3482 Z M 28809,9470 C 28481,9446 28229,9294 28048,9046 27748,8604 27758,7867 28062,6901 28162,6578 28253,6240 28338,5912 28481,5360 28619,4847 28819,4385 29185,3543 29694,3344 30146,3258 30289,3234 30565,3196 30893,3196 31136,3196 31503,3206 31840,3296 32435,3444 32740,3857 32663,4395 32587,4908 32283,5275 31831,5398 31793,5413 31764,5413 31726,5422 31755,5451 31793,5474 31817,5512 31993,5736 32069,6050 32031,6402 31969,6954 31512,7529 30870,7529 L 30399,7529 C 30389,7553 30389,7591 30375,7615 30108,8480 29818,9470 28924,9470 L 28809,9470 Z"/>
       </g>
      </g>
      <g class="com.sun.star.drawing.ClosedBezierShape">
       <g id="id8">
        <path fill="rgb(253,128,184)" stroke="none" d="M 27315,4209 C 27492,3857 27858,3258 28643,3334 29366,3405 29466,4124 29314,4737 29162,5351 28719,6863 28153,7943 27672,8870 26978,9470 25598,9294 24294,9132 24142,8067 24209,7377 24285,6440 24661,5122 24889,4509 25117,3895 25622,3258 26407,3320 26987,3367 27349,3867 27192,4552 27244,4390 27287,4271 27315,4209 Z"/>
       </g>
      </g>
      <g class="com.sun.star.drawing.ClosedBezierShape">
       <g id="id9">
        <path fill="rgb(13,0,0)" stroke="none" d="M 25003,4547 C 24765,5184 24408,6488 24323,7391 24209,8718 24951,9094 25598,9184 26749,9322 27482,8942 28024,7891 28643,6702 29100,5037 29176,4709 29276,4309 29252,3933 29085,3710 28986,3558 28819,3482 28619,3458 27934,3396 27568,3781 27406,4257 27382,4333 27344,4433 27254,4771 27192,4999 27163,5099 27011,5574 26911,5898 26811,6212 26711,6526 26659,6664 26535,7030 26421,7030 26331,7030 26407,6839 26497,6516 26621,6050 26673,5898 26787,5522 26940,5008 26949,4923 27025,4609 27101,4247 27087,3971 26940,3757 26811,3572 26607,3458 26369,3444 26354,3434 26331,3434 26293,3434 25469,3434 25094,4285 25003,4547 Z M 25584,9422 C 24537,9294 23980,8542 24080,7367 24170,6388 24546,5075 24775,4461 25017,3795 25574,3120 26421,3182 26735,3206 27011,3358 27178,3610 27239,3710 27292,3819 27330,3948 27520,3534 27934,3130 28681,3206 28971,3234 29185,3358 29338,3558 29542,3848 29580,4285 29466,4761 29376,5084 28933,6778 28291,7991 27748,8980 27049,9446 26055,9446 25902,9446 25750,9432 25584,9422 Z"/>
       </g>
      </g>
      <g class="com.sun.star.drawing.ClosedBezierShape">
       <g id="id10">
        <path fill="rgb(253,128,184)" stroke="none" d="M 19427,9508 C 19593,8994 19731,8381 20022,7453 20378,6264 20783,5337 20897,5037 21173,4271 21744,3658 22462,3420 22853,3282 23324,3258 23776,3367 24713,3620 25065,4323 25208,5137 25317,5826 25217,6578 24951,7191 24470,8295 23623,9094 22020,9118 22020,9118 21416,10559 21111,10935 20807,11325 20464,11448 20088,11401 19646,11339 18975,10949 19427,9508 Z"/>
       </g>
      </g>
      <g class="com.sun.star.drawing.ClosedBezierShape">
       <g id="id11">
        <path fill="rgb(13,0,0)" stroke="none" d="M 22500,3534 C 21820,3757 21273,4323 21011,5075 20983,5146 20945,5251 20883,5389 20707,5826 20402,6578 20136,7477 19998,7952 19884,8342 19793,8694 19708,9018 19631,9294 19555,9546 19365,10159 19365,10635 19555,10935 19722,11187 19974,11249 20112,11272 20464,11325 20754,11187 21021,10859 21311,10497 21906,9080 21920,9070 L 21958,8994 22034,8994 C 23400,8980 24323,8366 24851,7139 25117,6540 25208,5788 25094,5146 24941,4209 24508,3681 23752,3482 23561,3444 23385,3420 23195,3420 22957,3420 22729,3458 22500,3534 Z M 20074,11524 C 19898,11501 19555,11410 19341,11073 19098,10711 19089,10174 19317,9470 19389,9218 19465,8942 19555,8633 19655,8281 19755,7891 19898,7415 20174,6488 20464,5750 20654,5298 20707,5161 20745,5061 20769,4999 21073,4171 21668,3558 22424,3306 22867,3158 23362,3144 23814,3258 24661,3482 25170,4095 25346,5122 25460,5826 25369,6602 25079,7253 24523,8556 23552,9218 22120,9256 21996,9560 21501,10687 21225,11035 20935,11363 20602,11539 20236,11539 20188,11539 20126,11539 20074,11524 Z"/>
       </g>
      </g>
      <g class="com.sun.star.drawing.ClosedBezierShape">
       <g id="id12">
        <path fill="rgb(253,128,184)" stroke="none" d="M 17290,9346 C 16334,9322 16344,8181 16496,7505 16558,7201 16634,7001 16991,5712 17252,4709 17785,3910 18166,3634 18761,3196 19807,3196 20455,3534 21097,3872 21399,4535 21311,5313 21223,6090 20654,6488 20364,6740 20250,6839 20174,6916 20174,7039 20174,7153 20364,7905 20464,8595 20578,9322 19755,9484 19327,9284 18761,9018 18556,7981 18556,7981 18342,8466 18090,9370 17290,9346 Z"/>
       </g>
      </g>
      <g class="com.sun.star.drawing.ClosedBezierShape">
       <g id="id13">
        <path fill="rgb(13,0,0)" stroke="none" d="M 18708,8128 C 18732,8190 18784,8319 18808,8404 18922,8694 19098,9056 19389,9184 19479,9218 19608,9246 19722,9246 19945,9246 20136,9170 20250,9046 20340,8932 20378,8794 20350,8618 20288,8243 20212,7843 20150,7553 20088,7253 20060,7101 20060,7039 20060,6863 20174,6754 20302,6640 20326,6616 20350,6602 20378,6578 20669,6326 21121,5950 21197,5298 21287,4561 20997,3957 20416,3643 20136,3496 19769,3420 19389,3420 18946,3420 18532,3534 18252,3734 17885,3995 17381,4771 17114,5736 16953,6340 16848,6702 16777,6954 16700,7239 16662,7367 16624,7529 16520,8019 16496,8642 16762,8980 16886,9146 17067,9218 17290,9218 17771,9232 18037,8856 18214,8457 18266,8342 18328,8205 18366,8105 18456,7929 18494,7867 18556,7867 18618,7867 18646,7967 18708,8128 Z M 19279,9408 C 18875,9218 18646,8718 18532,8381 18328,8870 18014,9484 17319,9484 L 17281,9484 C 16962,9470 16724,9356 16558,9146 16153,8642 16306,7753 16367,7491 16405,7329 16444,7191 16520,6901 16596,6664 16700,6288 16862,5688 17152,4623 17709,3834 18090,3543 18404,3306 18861,3182 19365,3182 19784,3182 20188,3268 20502,3434 21173,3781 21525,4499 21425,5322 21339,6074 20821,6516 20516,6763 20493,6787 20464,6816 20440,6825 20326,6925 20288,6977 20288,7039 20288,7077 20340,7301 20378,7505 20440,7791 20531,8205 20578,8580 20616,8832 20569,9046 20426,9208 20274,9394 20012,9493 19722,9493 19555,9493 19403,9470 19279,9408 Z"/>
       </g>
      </g>
      <g class="com.sun.star.drawing.ClosedBezierShape">
       <g id="id14">
        <path fill="rgb(0,0,0)" stroke="none" d="M 19341,5451 C 19441,5222 19455,5008 19555,4999 19684,4985 19693,5199 19579,5522 19503,5765 19365,6012 19213,5950 19127,5912 19227,5712 19341,5451 Z"/>
       </g>
      </g>
      <g class="com.sun.star.drawing.ClosedBezierShape">
       <g id="id15">
        <path fill="rgb(253,128,184)" stroke="none" d="M 14283,9246 C 13489,8980 13222,8029 13641,6863 13879,6188 14169,5113 14512,4361 14816,3610 15373,3444 15711,3367 15963,3320 16848,3244 17405,3458 17938,3658 18090,3922 18052,4361 18014,4801 17761,5146 17367,5260 17186,5313 16924,5322 16729,5317 16791,5322 16862,5332 16938,5351 17252,5413 17519,5765 17405,6350 17305,6863 16991,7329 16444,7353 16272,7358 16139,7358 16039,7358 16639,7410 16786,7729 16800,8105 16810,8419 16662,8809 16396,9018 15863,9470 14854,9432 14283,9246 Z"/>
       </g>
      </g>
      <g class="com.sun.star.drawing.ClosedBezierShape">
       <g id="id16">
        <path fill="rgb(13,0,0)" stroke="none" d="M 17319,5137 C 17657,5037 17885,4737 17914,4347 17938,3881 17747,3719 17305,3558 17014,3444 16624,3420 16358,3420 16068,3420 15801,3444 15673,3472 15297,3543 14826,3719 14564,4385 14383,4823 14207,5375 14046,5898 13931,6264 13817,6616 13717,6892 13475,7553 13460,8157 13665,8580 13803,8842 14007,9032 14283,9118 14526,9194 14826,9246 15130,9246 15625,9246 16030,9132 16282,8918 16496,8732 16648,8404 16634,8105 16634,7905 16596,7715 16367,7567 16282,7505 16182,7477 16068,7453 15839,7429 15711,7405 15725,7329 15725,7268 15839,7268 16015,7268 L 16091,7268 C 16306,7268 16520,7253 16700,7153 16800,7092 16886,7015 16962,6925 17091,6778 17181,6602 17229,6411 17243,6378 17252,6350 17252,6326 17357,5812 17152,5551 16686,5413 16458,5351 16322,5337 16334,5260 16346,5184 16496,5213 16739,5199 17067,5199 17191,5175 17319,5137 Z M 16396,3182 C 16686,3182 17105,3206 17433,3334 17990,3543 18204,3834 18166,4333 18128,4837 17838,5213 17395,5351 17357,5360 17319,5360 17281,5375 17481,5560 17609,5888 17519,6350 17405,6939 17091,7329 16648,7429 16824,7577 16915,7791 16924,8090 16938,8466 16762,8880 16482,9108 16182,9356 15711,9493 15168,9493 14840,9493 14512,9446 14245,9356 13903,9246 13641,9018 13489,8694 13246,8205 13260,7543 13527,6816 13613,6540 13727,6202 13841,5836 14007,5313 14184,4761 14360,4309 14674,3534 15259,3334 15663,3244 15801,3206 16091,3182 16396,3182 Z"/>
       </g>
      </g>
      <g class="com.sun.star.drawing.ClosedBezierShape">
       <g id="id17">
        <path fill="rgb(253,128,184)" stroke="none" d="M 13689,3534 C 13931,3358 14269,3244 14588,3382 15230,3643 15092,4633 14550,5674 14345,6064 13827,6901 13246,7753 12613,8694 12085,9432 11438,9346 10843,9270 10796,8580 10834,8190 10834,8190 10477,9446 9621,9346 8836,9256 8836,8105 8859,7201 8888,6312 8874,5898 8888,5175 8897,4057 9302,3234 10073,3320 10881,3420 10796,4585 10629,5161 10629,5161 11314,3096 12352,3320 12818,3444 13132,3948 12728,5184 12946,4699 13208,3910 13689,3534 Z"/>
       </g>
      </g>
      <g class="com.sun.star.drawing.ClosedBezierShape">
       <g id="id18">
        <path fill="rgb(13,0,0)" stroke="none" d="M 10948,8495 C 10958,8595 10986,8694 11010,8809 11072,9018 11200,9218 11467,9256 12023,9322 12552,8742 13199,7791 13827,6863 14269,5988 14450,5636 14840,4885 14992,4209 14854,3819 14802,3672 14702,3572 14550,3505 14307,3405 14017,3472 13779,3643 13489,3872 13246,4257 13070,4647 13032,4747 12980,4847 12946,4937 12842,5146 12742,5360 12690,5313 12642,5275 12680,5075 12718,4885 12756,4723 12766,4647 12780,4547 12842,4124 12780,3872 12690,3719 12613,3581 12490,3505 12337,3472 12299,3458 12247,3458 12209,3458 11833,3458 11490,3772 11224,4224 11062,4485 11034,4585 10858,4923 10758,5113 10667,5322 10606,5298 10544,5275 10567,5046 10591,4837 10658,4371 10644,3957 10468,3696 10377,3558 10253,3482 10073,3472 L 9973,3472 C 9530,3472 9040,3919 9026,5213 L 9026,5926 C 9026,6312 9026,6678 9012,7239 8988,8181 9012,9184 9668,9256 L 9744,9256 C 9949,9256 10111,9170 10253,9032 10429,8870 10553,8656 10644,8480 10758,8219 10810,8090 10872,8105 10920,8119 10910,8219 10948,8495 Z M 11429,9484 C 11024,9432 10810,9132 10743,8756 10553,9094 10225,9484 9735,9484 9697,9484 9659,9484 9621,9470 8683,9356 8721,8005 8745,7201 8759,6640 8759,6278 8759,5898 L 8759,5175 C 8774,3948 9240,3196 9963,3196 9996,3196 10049,3196 10087,3206 10330,3234 10515,3344 10658,3543 10796,3757 10858,4048 10858,4323 10896,4247 10934,4157 10986,4086 11276,3620 11690,3182 12185,3182 12247,3182 12314,3196 12375,3206 12604,3258 12780,3382 12894,3581 12980,3743 13032,3948 13032,4186 13184,3895 13375,3620 13613,3444 13931,3206 14307,3144 14640,3268 14854,3358 14992,3505 15083,3734 15245,4195 15107,4908 14664,5736 14436,6164 13941,7101 13398,7919 12818,8771 12237,9493 11543,9493 11505,9493 11467,9493 11429,9484 Z"/>
       </g>
      </g>
      <g class="com.sun.star.drawing.ClosedBezierShape">
       <g id="id19">
        <path fill="rgb(253,128,184)" stroke="none" d="M 5348,5660 C 5981,4157 7051,2982 8407,3405 9568,3772 9820,5674 9188,7215 8522,8856 7218,9631 6043,9284 4929,8942 4663,7291 5348,5660 Z"/>
       </g>
      </g>
      <g class="com.sun.star.drawing.ClosedBezierShape">
       <g id="id20">
        <path fill="rgb(13,0,0)" stroke="none" d="M 5472,5712 C 5058,6725 4991,7781 5319,8466 5486,8818 5762,9070 6095,9170 6271,9218 6447,9246 6623,9246 7622,9246 8569,8457 9088,7177 9492,6188 9521,5023 9164,4271 8988,3881 8707,3634 8379,3520 8203,3472 8027,3444 7860,3444 6951,3444 6081,4271 5472,5712 Z M 6019,9408 C 5614,9284 5296,8994 5096,8580 4729,7815 4791,6716 5248,5627 5890,4086 6837,3206 7860,3206 8050,3206 8255,3244 8455,3296 8859,3420 9178,3719 9392,4171 9782,4999 9759,6212 9330,7277 8759,8642 7722,9493 6623,9493 6423,9493 6219,9470 6019,9408 Z"/>
       </g>
      </g>
      <g class="com.sun.star.drawing.ClosedBezierShape">
       <g id="id21">
        <path fill="rgb(0,0,0)" stroke="none" d="M 7484,5774 C 7532,5727 7622,5712 7660,5774 7698,5836 7684,5926 7684,6002 7675,6140 7637,6278 7584,6411 7484,6678 7346,7001 7194,6939 7066,6892 7142,6740 7194,6654 7294,6449 7356,6212 7422,5988 L 7422,5950 C 7432,5888 7446,5826 7484,5774 Z"/>
       </g>
      </g>
      <g class="com.sun.star.drawing.ClosedBezierShape">
       <g id="id22">
        <path fill="rgb(253,128,184)" stroke="none" d="M 1213,7177 C 1366,6664 1527,6212 1808,5284 2160,4095 2479,3020 2603,2721 3007,1641 4220,775 5448,1127 6913,1555 7280,3634 6699,4975 6219,6074 5334,6939 3730,6954 3730,6954 3288,8442 2869,8880 2565,9218 2236,9370 1870,9308 1480,9232 757,8771 1213,7177 Z"/>
       </g>
      </g>
      <g class="com.sun.star.drawing.ClosedBezierShape">
       <g id="id23">
        <path fill="rgb(13,0,0)" stroke="none" d="M 2717,2754 C 2617,3030 2336,3948 2008,5023 L 1922,5322 C 1770,5812 1670,6164 1565,6464 1480,6740 1404,6963 1342,7215 1137,7905 1151,8466 1380,8818 1556,9108 1822,9170 1898,9184 2212,9246 2503,9118 2793,8809 3188,8395 3616,6939 3616,6925 L 3640,6839 3730,6839 C 5082,6825 6057,6174 6585,4937 6942,4124 6913,3058 6547,2278 6371,1903 6028,1427 5396,1251 5234,1203 5058,1180 4882,1180 3868,1180 3021,1964 2717,2754 Z M 1846,9432 C 1718,9408 1389,9322 1161,8956 885,8518 871,7919 1085,7139 1161,6892 1238,6654 1327,6388 1428,6088 1542,5736 1680,5251 L 1770,4947 C 2084,3872 2365,2944 2479,2668 2869,1665 3883,927 4882,927 5082,927 5286,951 5486,1013 6057,1180 6499,1579 6790,2178 7194,3020 7207,4158 6828,5037 6260,6351 5258,7039 3830,7092 3730,7429 3350,8595 2969,8980 2679,9284 2365,9446 2036,9446 1970,9446 1908,9446 1846,9432 Z"/>
       </g>
      </g>
      <g class="com.sun.star.drawing.ClosedBezierShape">
       <g id="id24">
        <path fill="rgb(253,223,4)" stroke="none" d="M 19389,12076 C 19503,11938 19734,11974 19784,12124 19834,12274 19898,12552 19898,12552 19898,12552 20274,12628 20378,12652 20493,12675 20592,12904 20402,13042 20198,13189 19983,13341 19983,13341 19983,13341 19960,13755 19945,13869 19936,13979 19755,14107 19570,13993 L 19227,13765 C 19227,13765 18937,13879 18732,13969 18570,14040 18366,13869 18470,13655 18542,13493 18656,13256 18656,13256 18656,13256 18432,12980 18380,12889 18304,12775 18366,12566 18570,12537 18837,12528 19075,12499 19075,12499 19075,12499 19303,12190 19389,12076 Z"/>
       </g>
      </g>
      <g class="com.sun.star.drawing.ClosedBezierShape">
       <g id="id25">
        <path fill="rgb(13,0,0)" stroke="none" d="M 19317,13665 C 19317,13665 19465,13765 19646,13879 19669,13903 19708,13903 19731,13903 19793,13903 19831,13869 19831,13855 19845,13741 19869,13341 19869,13341 19869,13303 19898,13265 19922,13241 19922,13241 20150,13089 20340,12942 20378,12904 20402,12875 20388,12828 20388,12790 20364,12766 20350,12766 20264,12742 19884,12666 19884,12666 19831,12652 19793,12614 19784,12576 19784,12576 19722,12300 19669,12162 19655,12124 19617,12114 19579,12114 19555,12114 19517,12114 19493,12152 19403,12262 19175,12576 19175,12576 19151,12604 19127,12628 19089,12628 19089,12628 18846,12637 18594,12666 18556,12666 18518,12690 18504,12713 18480,12752 18494,12804 18504,12813 18542,12866 18685,13051 18770,13165 18799,13203 18808,13256 18784,13289 18784,13303 18685,13541 18594,13703 18580,13741 18570,13779 18594,13803 18618,13841 18656,13855 18694,13841 18899,13755 19175,13641 19189,13641 L 19241,13641 C 19265,13641 19289,13655 19317,13665 Z M 19503,14093 C 19379,14017 19279,13941 19227,13903 19137,13941 18946,14017 18799,14079 18761,14093 18708,14107 18670,14107 18556,14107 18442,14040 18380,13941 18318,13841 18316,13715 18366,13603 18416,13491 18480,13356 18518,13265 18442,13180 18318,13013 18280,12942 18214,12842 18214,12704 18280,12590 18342,12476 18442,12414 18570,12400 18746,12390 18908,12376 18999,12376 19060,12290 19213,12076 19289,11986 19351,11900 19465,11853 19570,11853 19722,11853 19845,11938 19898,12076 19936,12176 19974,12338 19998,12438 20112,12466 20326,12499 20402,12514 20502,12537 20592,12628 20631,12752 20654,12889 20602,13027 20478,13127 20340,13241 20174,13341 20098,13403 20088,13527 20074,13779 20074,13869 20060,14007 19922,14155 19731,14155 19655,14155 19579,14131 19503,14093 Z"/>
       </g>
      </g>
      <g class="com.sun.star.drawing.ClosedBezierShape">
       <g id="id26">
        <path fill="rgb(0,0,0)" stroke="none" d="M 23033,5260 C 23071,5213 23181,5199 23209,5284 23257,5451 23271,5522 23324,5727 23333,5788 23347,5798 23409,5812 23561,5850 23699,5874 23866,5912 23956,5926 23956,6036 23890,6088 23728,6212 23638,6278 23476,6402 23400,6449 23400,6440 23400,6549 23385,6740 23371,6939 23371,7001 23371,7092 23271,7153 23195,7101 23019,6992 22943,6939 22814,6854 22767,6816 22729,6825 22691,6839 22515,6916 22448,6939 22210,7039 22120,7077 22044,7001 22072,6925 22148,6754 22196,6625 22263,6449 22286,6402 22272,6378 22248,6340 22158,6212 22082,6126 21968,5974 21929,5926 21958,5812 22082,5798 22234,5788 22462,5774 22577,5765 22653,5765 22676,5736 22705,5698 22843,5522 22967,5337 23033,5260 Z"/>
       </g>
      </g>
      <g class="com.sun.star.drawing.ClosedBezierShape">
       <g id="id27">
        <path fill="rgb(0,0,0)" stroke="none" d="M 4806,2982 C 4844,2930 4953,2920 4982,3006 5029,3168 5043,3244 5096,3444 5105,3505 5120,3520 5181,3534 5334,3572 5472,3596 5638,3634 5729,3643 5729,3757 5662,3810 5500,3933 5410,3995 5248,4124 5181,4171 5181,4157 5172,4257 5158,4447 5143,4647 5143,4709 5143,4799 5043,4861 4967,4809 4791,4699 4715,4647 4587,4561 4539,4523 4501,4533 4463,4547 4287,4623 4220,4647 3982,4747 3892,4785 3816,4709 3844,4633 3921,4461 3968,4333 4035,4157 4059,4109 4044,4086 4020,4048 3930,3919 3854,3834 3740,3681 3702,3634 3730,3520 3854,3505 4006,3496 4235,3482 4349,3472 4425,3472 4449,3444 4472,3420 4615,3244 4739,3058 4806,2982 Z"/>
       </g>
      </g>
      <g class="com.sun.star.drawing.ClosedBezierShape">
       <g id="id28">
        <path fill="rgb(42,185,240)" stroke="none" d="M 17809,11510 C 17647,11510 17495,11448 17367,11410 17861,11639 18190,11952 18166,12652 18128,13479 17547,13979 16924,14140 16068,14383 15192,13931 15045,13403 14931,12980 15130,12528 15473,12366 15711,12252 15963,12314 16258,12414 15892,12238 15573,11938 15625,11410 15687,10649 16334,10259 16786,10145 17105,10074 17419,10107 17671,10197 17885,10283 18099,10435 18204,10621 18432,11073 18152,11501 17809,11510 Z"/>
       </g>
      </g>
      <g class="com.sun.star.drawing.ClosedBezierShape">
       <g id="id29">
        <path fill="rgb(13,0,0)" stroke="none" d="M 17595,11410 C 17861,11448 18037,11287 18099,11172 18175,11025 18175,10849 18090,10687 18014,10535 17838,10397 17624,10321 17367,10235 17076,10221 16810,10283 16358,10397 15801,10759 15739,11439 15701,11924 15963,12190 16306,12338 16596,12466 16786,12590 16762,12675 16739,12775 16458,12604 16282,12528 16001,12414 15739,12376 15520,12476 15230,12614 15068,13013 15168,13365 15297,13831 16115,14231 16886,14017 17419,13869 17999,13427 18037,12637 18061,12138 17885,11862 17557,11648 17481,11600 17433,11577 17319,11510 17114,11410 16991,11339 17029,11272 17091,11187 17343,11372 17595,11410 Z M 18318,10559 C 18442,10811 18442,11073 18318,11287 18214,11448 18061,11562 17885,11586 18152,11824 18304,12152 18280,12652 18242,13579 17571,14093 16953,14254 16777,14307 16596,14331 16434,14331 15687,14331 15054,13903 14916,13427 14778,12966 15007,12438 15411,12252 15511,12200 15625,12176 15725,12176 15573,11986 15473,11738 15497,11401 15573,10597 16229,10159 16762,10021 17067,9945 17405,9960 17709,10074 17990,10174 18204,10345 18318,10559 Z"/>
       </g>
      </g>
      <g class="com.sun.star.drawing.ClosedBezierShape">
       <g id="id30">
        <path fill="rgb(42,185,240)" stroke="none" d="M 14892,10083 C 15411,10145 15535,10549 15397,11011 15221,11577 15016,12252 14916,12604 15154,12628 15487,12704 15635,12942 15711,13051 15763,13218 15725,13389 15611,14007 15054,14169 14612,14178 14222,14193 13536,14169 13275,13803 13008,13455 12918,13089 13056,12637 13237,12100 13641,11372 13703,11163 13969,10312 14398,10021 14892,10083 Z"/>
       </g>
      </g>
      <g class="com.sun.star.drawing.ClosedBezierShape">
       <g id="id31">
        <path fill="rgb(13,0,0)" stroke="none" d="M 13827,11201 C 13803,11287 13475,12314 13375,12628 13246,13013 13184,13503 13375,13741 13536,13955 13917,14069 14488,14069 L 14612,14069 C 14940,14055 15497,13955 15611,13379 15635,13256 15611,13118 15535,13013 15397,12813 15045,12752 14902,12728 14740,12690 14802,12576 14802,12576 14878,12300 15016,11853 15154,11410 L 15283,10987 C 15359,10759 15344,10549 15259,10421 15183,10312 15054,10245 14878,10221 14840,10197 14802,10197 14764,10197 14345,10197 14031,10535 13827,11201 Z M 13170,13879 C 12970,13631 12908,13118 13056,12637 13161,12314 13565,11201 13574,11125 13741,10587 14084,9945 14750,9945 14802,9945 14840,9945 14892,9960 15145,9998 15335,10098 15449,10274 15573,10473 15597,10749 15497,11049 L 15373,11477 C 15268,11815 15154,12162 15083,12428 15068,12452 15083,12499 15154,12514 15373,12566 15597,12666 15725,12866 15825,13027 15877,13227 15839,13417 15687,14193 14931,14293 14612,14307 L 14488,14307 C 13827,14307 13384,14155 13170,13879 Z"/>
       </g>
      </g>
      <g class="com.sun.star.drawing.ClosedBezierShape">
       <g id="id32">
        <path fill="rgb(42,185,240)" stroke="none" d="M 11162,14178 C 10529,14155 10544,13389 10644,12942 10682,12742 10734,12604 10958,11724 11138,11063 11490,10521 11743,10335 12147,10045 12842,10045 13275,10274 13703,10497 13941,10897 13865,11448 13793,12024 13413,12290 13199,12438 13108,12499 13108,12552 13122,12628 13161,12766 13275,13256 13313,13593 13375,14131 12742,14245 12437,14055 12123,13855 12033,13218 12033,13218 11933,13565 11690,14193 11162,14178 Z"/>
       </g>
      </g>
      <g class="com.sun.star.drawing.ClosedBezierShape">
       <g id="id33">
        <path fill="rgb(13,0,0)" stroke="none" d="M 11833,10435 C 11590,10611 11262,11125 11086,11762 10972,12162 10910,12414 10858,12576 10810,12766 10782,12851 10758,12951 10696,13279 10667,13693 10843,13893 10920,13979 11024,14031 11162,14031 L 11176,14031 C 11505,14031 11690,13703 11857,13389 11933,13241 11985,13065 12033,13065 12071,13065 12107,13201 12171,13389 12235,13577 12337,13831 12490,13931 12552,13969 12651,13993 12756,13993 12908,13993 13032,13941 13108,13855 13170,13779 13199,13693 13184,13579 13161,13303 13070,12927 13018,12713 13008,12675 13008,12637 12994,12614 12970,12476 13008,12390 13122,12300 L 13132,12290 C 13337,12138 13679,11900 13741,11386 13803,10911 13613,10549 13208,10335 13046,10297 12804,10235 12566,10235 12276,10235 12009,10312 11833,10435 Z M 11148,14307 C 10934,14307 10758,14216 10644,14069 10377,13731 10468,13151 10515,12913 10544,12804 10567,12713 10620,12514 10667,12352 10734,12100 10843,11700 11048,10973 11414,10435 11681,10235 11909,10074 12209,9983 12566,9983 12856,9983 13122,10045 13351,10159 13855,10421 14084,10887 14007,11463 13931,12076 13513,12366 13299,12528 L 13284,12537 C 13260,12552 13260,12566 13260,12566 L 13260,12590 C 13260,12614 13275,12637 13284,12690 13337,12904 13422,13289 13451,13579 13475,13765 13422,13931 13313,14055 13184,14193 12994,14269 12766,14269 12613,14269 12475,14231 12375,14169 12199,14055 12085,13841 12009,13641 11805,14079 11529,14307 11176,14307 L 11148,14307 Z"/>
       </g>
      </g>
      <g class="com.sun.star.drawing.ClosedBezierShape">
       <g id="id34">
        <path fill="rgb(0,0,0)" stroke="none" d="M 12490,11486 C 12566,11287 12575,11149 12680,11163 12794,11163 12780,11372 12718,11562 12680,11715 12537,11914 12414,11862 12352,11838 12414,11686 12490,11486 Z"/>
       </g>
      </g>
      <g class="com.sun.star.drawing.ClosedBezierShape">
       <g id="id35">
        <path fill="rgb(42,185,240)" stroke="none" d="M 9897,10787 C 10101,10274 10553,10005 10996,10107 11438,10209 11657,10559 11376,11401 10972,12614 10734,13282 10620,13593 10506,13905 10177,14278 9583,14178 9240,14117 8950,13779 9126,13103 9216,12766 9264,12290 9416,11838 9568,11401 9820,10973 9897,10787 Z"/>
       </g>
      </g>
      <g class="com.sun.star.drawing.ClosedBezierShape">
       <g id="id36">
        <path fill="rgb(13,0,0)" stroke="none" d="M 10011,10835 C 9987,10911 9936,10997 9873,11125 9774,11325 9630,11610 9530,11886 9445,12162 9378,12438 9340,12704 9316,12866 9278,13013 9240,13151 9164,13455 9178,13703 9292,13869 9378,14007 9521,14055 9606,14069 9668,14079 9721,14079 9782,14079 10277,14079 10468,13679 10506,13555 L 10515,13517 C 10629,13189 10872,12528 11253,11372 11391,10949 11400,10649 11300,10459 11238,10345 11124,10274 10958,10235 10910,10221 10858,10221 10810,10221 10468,10221 10163,10459 10011,10835 Z M 9559,14316 C 9354,14278 9180,14171 9078,14007 8976,13843 8874,13555 9002,13089 9040,12966 9064,12813 9088,12666 9140,12400 9202,12100 9292,11824 9392,11524 9544,11234 9644,11025 9697,10911 9744,10825 9773,10759 9963,10283 10353,9983 10796,9983 10872,9983 10934,9998 11010,10007 11253,10059 11414,10174 11514,10345 11657,10597 11643,10963 11476,11463 11086,12628 10843,13289 10734,13617 L 10720,13655 C 10620,13969 10301,14331 9773,14331 9706,14331 9630,14331 9559,14316 Z"/>
       </g>
      </g>
      <g class="com.sun.star.drawing.ClosedBezierShape">
       <g id="id37">
        <path fill="rgb(42,185,240)" stroke="none" d="M 8193,12790 C 8193,12790 7789,12904 7598,12637 7506,12517 7511,12258 7593,12068 7590,12075 7587,12083 7584,12090 L 8193,12790 Z M 7789,11853 C 7927,11800 8062,11786 8417,11786 8771,11786 8935,11776 9178,11786 9592,11815 9759,12124 9583,12590 9407,13051 9102,13793 8255,14079 7584,14307 6675,14193 6309,13356 6104,12889 6119,12328 6233,11853 6333,11439 6523,11125 6799,10835 7422,10197 8141,10021 8707,10098 9378,10183 9835,10511 9887,11011 9949,11776 9178,11962 8683,11624 8469,11486 8355,11477 8217,11486 7933,11524 7722,11751 7593,12068 7637,11965 7704,11883 7789,11853 Z"/>
       </g>
      </g>
      <g class="com.sun.star.drawing.ClosedBezierShape">
       <g id="id38">
        <path fill="rgb(13,0,0)" stroke="none" d="M 6875,10925 C 6609,11201 6433,11510 6333,11886 6204,12376 6233,12913 6409,13303 6737,14069 7560,14155 8193,13969 9064,13703 9292,12942 9445,12552 9521,12338 9530,12162 9454,12052 9407,11976 9340,11938 9202,11914 9050,11886 8545,11900 8407,11900 8065,11900 7965,11914 7851,11962 7684,12024 7646,12162 7622,12314 7608,12428 7660,12552 7684,12576 7751,12652 7836,12690 7927,12704 8041,12713 8291,12690 8303,12752 8315,12813 8155,12942 7913,12942 7775,12942 7598,12875 7484,12713 7370,12552 7384,12290 7432,12124 L 7470,12014 C 7637,11624 7874,11401 8179,11372 8355,11363 8493,11372 8721,11524 8821,11586 8935,11639 9050,11648 L 9164,11648 9202,11648 C 9302,11648 9407,11624 9483,11577 9668,11463 9744,11272 9735,11011 9697,10597 9302,10297 8674,10212 L 8431,10212 C 7874,10212 7318,10459 6875,10925 Z M 6166,13403 C 5981,12951 5943,12376 6081,11824 6195,11401 6385,11063 6675,10749 7242,10159 7974,9883 8683,9969 9445,10074 9925,10459 9963,10996 9987,11348 9859,11639 9592,11786 9583,11786 9568,11800 9559,11800 9592,11838 9621,11862 9644,11900 9721,12024 9797,12252 9659,12614 9492,13051 9226,13869 8255,14178 8065,14269 7836,14307 7608,14307 7028,14307 6461,14055 6166,13403 Z"/>
       </g>
      </g>
      <g class="com.sun.star.drawing.ClosedBezierShape">
       <g id="id39">
        <path fill="rgb(0,0,0)" stroke="none" d="M 9278,0 C 9354,14 9407,86 9392,162 9392,162 9278,728 9150,1365 9292,1289 9445,1279 9559,1341 9682,1403 9773,1527 9782,1693 9797,1817 9759,1979 9735,2131 9721,2254 9697,2392 9706,2468 9721,2507 9759,2568 9811,2592 9859,2616 9949,2606 10035,2545 9935,2331 9935,2040 10035,1765 10149,1455 10429,1317 10629,1351 10810,1379 10920,1527 10934,1717 10948,2078 10682,2369 10429,2568 L 10453,2568 C 10948,2683 11176,2178 11186,2155 11224,2093 11298,2069 11362,2093 11426,2117 11452,2193 11429,2254 11314,2507 10958,2958 10391,2820 10330,2806 10253,2768 10201,2730 10073,2830 9949,2854 9859,2854 9797,2854 9744,2844 9706,2830 9568,2782 9468,2668 9445,2516 9416,2407 9445,2254 9468,2093 9483,1955 9521,1817 9506,1717 9492,1641 9454,1589 9416,1565 9378,1541 9316,1541 9240,1579 9116,1641 9050,1779 8988,2069 8974,2078 8974,2093 8974,2102 8821,2683 8560,2792 8341,2830 L 8269,2830 C 8165,2830 8079,2792 8012,2721 8003,2692 7989,2683 7974,2654 7798,2806 7608,2820 7598,2820 7532,2820 7470,2768 7470,2692 7470,2616 7522,2554 7598,2554 7598,2554 7798,2545 7898,2345 7936,2269 7989,1964 8041,1727 L 8050,1641 7851,1641 C 7789,1641 7722,1589 7722,1517 7722,1455 7775,1389 7851,1389 L 8103,1389 C 8165,1103 8217,866 8217,866 8241,804 8303,751 8379,766 8455,775 8493,837 8483,913 8483,913 8431,1113 8379,1389 L 8560,1389 C 8621,1389 8683,1441 8683,1517 8683,1579 8636,1641 8560,1641 L 8331,1641 8303,1779 C 8279,1931 8255,2069 8231,2169 L 8231,2178 C 8231,2216 8217,2240 8217,2269 8165,2478 8193,2530 8231,2554 8303,2616 8431,2554 8507,2507 8598,2430 8698,2278 8759,1955 8935,1103 9126,114 9126,100 9137,52 9176,10 9228,0 L 9278,0 Z M 10277,1841 C 10215,2017 10201,2231 10253,2369 10477,2193 10682,1979 10682,1717 10682,1641 10644,1603 10591,1589 L 10567,1589 C 10468,1589 10339,1679 10277,1841 Z"/>
       </g>
      </g>
      <g class="com.sun.star.drawing.ClosedBezierShape">
       <g id="id40">
        <path fill="rgb(0,0,0)" stroke="none" d="M 19137,15020 C 19184,15020 19232,15020 19279,15020 19279,15028 19279,15036 19279,15044 19262,15044 19244,15044 19227,15044 19227,15095 19227,15145 19227,15196 19214,15196 19202,15196 19189,15196 19189,15145 19189,15095 19189,15044 19171,15044 19154,15044 19137,15044 19137,15036 19137,15028 19137,15020 Z"/>
       </g>
      </g>
      <g class="com.sun.star.drawing.ClosedBezierShape">
       <g id="id41">
        <path fill="rgb(0,0,0)" stroke="none" d="M 19441,15020 C 19459,15020 19476,15020 19493,15020 19493,15079 19493,15138 19493,15196 19481,15196 19468,15196 19455,15196 19455,15150 19455,15104 19455,15058 L 19455,15058 C 19438,15104 19420,15150 19403,15196 19395,15196 19387,15196 19379,15196 19362,15150 19344,15104 19327,15058 L 19327,15058 C 19327,15104 19327,15150 19327,15196 19319,15196 19311,15196 19303,15196 19303,15138 19303,15079 19303,15020 19316,15020 19328,15020 19341,15020 19357,15066 19373,15112 19389,15158 L 19389,15158 C 19406,15112 19424,15066 19441,15020 Z"/>
       </g>
      </g>
      <g class="com.sun.star.drawing.PolyPolygonShape">
       <g id="id42">
        <path fill="rgb(0,0,0)" stroke="none" d="M 33092,2117 L 33420,2117 33258,1741 33225,1822 33186,1914 33092,2117 Z M 33334,1617 L 33686,2392 33688,2395 33689,2397 33689,2399 33690,2402 33691,2407 33691,2412 33690,2418 33688,2423 33686,2429 33683,2434 33680,2439 33677,2444 33673,2449 33668,2454 33664,2458 33659,2462 33654,2466 33648,2468 33646,2469 33644,2470 33639,2471 33634,2471 33628,2470 33623,2469 33618,2467 33612,2465 33607,2462 33601,2459 33596,2455 33591,2452 33587,2448 33583,2444 33579,2439 33575,2435 33572,2430 33572,2430 33487,2240 33044,2240 33010,2312 32985,2369 32966,2409 32960,2422 32956,2427 32954,2430 32954,2430 32954,2430 32954,2430 32954,2430 32951,2435 32947,2439 32944,2443 32940,2446 32935,2449 32931,2452 32926,2455 32921,2457 32916,2458 32910,2459 32905,2460 32899,2460 32894,2459 32888,2458 32883,2457 32878,2454 32871,2452 32865,2449 32859,2446 32854,2442 32850,2438 32846,2433 32843,2429 32841,2423 32839,2418 32837,2412 32836,2407 32836,2401 32836,2395 32837,2389 32838,2384 32839,2378 32839,2378 32839,2378 32839,2378 32839,2378 32840,2377 32840,2374 32843,2366 32854,2339 32893,2251 33011,1992 33129,1737 33167,1652 33178,1627 33181,1620 33182,1618 33182,1617 33185,1610 33188,1604 33191,1598 33195,1593 33198,1588 33202,1584 33207,1580 33211,1577 33216,1574 33221,1571 33227,1569 33232,1568 33238,1566 33245,1565 33251,1565 33258,1565 33258,1565 33265,1565 33272,1566 33278,1567 33284,1569 33290,1571 33295,1574 33300,1577 33305,1580 33310,1584 33314,1588 33318,1592 33322,1597 33325,1602 33329,1607 33334,1617 Z"/>
       </g>
      </g>
      <g class="com.sun.star.drawing.PolyPolygonShape">
       <g id="id43">
        <path fill="rgb(0,0,0)" stroke="none" d="M 15344,2117 L 15673,2117 15511,1741 15478,1822 15438,1914 15344,2117 Z M 15587,1617 L 15939,2378 15941,2384 15943,2389 15943,2395 15943,2401 15942,2407 15941,2412 15939,2418 15936,2423 15933,2429 15929,2433 15925,2438 15921,2442 15916,2446 15912,2449 15906,2452 15901,2454 15899,2455 15897,2456 15894,2457 15892,2458 15886,2458 15881,2458 15876,2457 15870,2456 15865,2454 15859,2451 15854,2448 15849,2445 15844,2441 15840,2436 15835,2432 15831,2427 15828,2421 15825,2416 15825,2416 15739,2231 15297,2231 15206,2430 15206,2430 15204,2435 15200,2439 15196,2443 15192,2446 15187,2449 15182,2452 15177,2455 15172,2457 15167,2458 15161,2459 15156,2460 15150,2460 15145,2459 15140,2458 15135,2457 15130,2454 15124,2452 15117,2449 15112,2446 15107,2442 15103,2438 15099,2433 15096,2429 15093,2423 15092,2418 15090,2412 15089,2407 15089,2401 15089,2395 15090,2389 15091,2384 15092,2378 15092,2378 15092,2378 15092,2378 15093,2377 15093,2374 15096,2366 15107,2339 15146,2251 15264,1992 15381,1737 15420,1652 15431,1627 15434,1620 15435,1618 15435,1617 15438,1610 15441,1604 15444,1598 15447,1593 15451,1588 15455,1584 15459,1580 15464,1577 15469,1574 15474,1571 15479,1569 15485,1568 15491,1566 15497,1565 15504,1565 15511,1565 15511,1565 15518,1565 15525,1566 15531,1567 15537,1569 15543,1571 15548,1574 15553,1577 15558,1580 15563,1584 15567,1588 15571,1592 15575,1597 15578,1602 15581,1607 15587,1617 Z"/>
       </g>
      </g>
      <g class="com.sun.star.drawing.PolyPolygonShape">
       <g id="id44">
        <path fill="rgb(0,0,0)" stroke="none" d="M 14588,2354 L 14622,2358 14659,2359 14698,2356 14718,2353 14738,2349 14759,2344 14779,2337 14799,2329 14819,2320 14838,2310 14857,2298 14875,2284 14892,2269 14897,2264 14902,2259 14907,2256 14913,2253 14918,2250 14924,2249 14931,2248 14937,2247 14944,2248 14950,2249 14957,2250 14964,2253 14971,2256 14978,2259 14985,2264 14992,2269 14997,2273 15000,2278 15003,2283 15006,2289 15008,2294 15009,2300 15010,2306 15010,2312 15010,2317 15009,2323 15008,2329 15006,2334 15003,2340 15000,2345 14997,2350 14992,2354 14975,2371 14957,2386 14938,2399 14919,2412 14899,2423 14879,2433 14838,2450 14797,2463 14755,2471 14714,2476 14674,2478 14648,2478 14622,2477 14609,2476 14597,2474 14585,2472 14574,2468 14537,2457 14501,2443 14467,2427 14434,2407 14403,2386 14374,2362 14347,2336 14323,2309 14300,2279 14280,2248 14263,2215 14248,2180 14237,2145 14228,2108 14223,2070 14222,2031 14224,1972 14232,1917 14244,1866 14260,1819 14280,1777 14304,1738 14330,1703 14360,1672 14391,1644 14424,1620 14459,1599 14495,1581 14531,1567 14568,1555 14604,1547 14640,1541 14668,1539 14695,1539 14722,1541 14749,1543 14774,1548 14799,1553 14824,1560 14847,1568 14869,1576 14889,1586 14908,1596 14926,1607 14942,1619 14956,1631 14968,1643 14978,1655 14981,1660 14983,1665 14985,1670 14986,1675 14987,1681 14988,1686 14988,1692 14988,1698 14987,1704 14986,1710 14984,1715 14982,1721 14980,1726 14976,1731 14973,1736 14969,1741 14963,1745 14957,1748 14952,1751 14946,1752 14940,1753 14934,1754 14928,1753 14922,1752 14916,1751 14910,1749 14904,1746 14898,1743 14893,1740 14888,1736 14883,1731 14878,1727 14873,1721 14866,1716 14857,1710 14846,1704 14821,1693 14791,1682 14757,1673 14720,1667 14681,1664 14661,1664 14640,1665 14612,1668 14583,1674 14556,1682 14528,1692 14502,1705 14477,1720 14453,1738 14431,1759 14410,1782 14392,1808 14376,1837 14362,1869 14351,1905 14343,1943 14338,1985 14336,2031 14337,2061 14340,2090 14346,2118 14354,2144 14364,2170 14375,2194 14389,2217 14405,2239 14422,2259 14441,2278 14462,2295 14484,2310 14508,2324 14533,2336 14560,2346 14588,2354 Z"/>
       </g>
      </g>
      <g class="com.sun.star.drawing.PolyPolygonShape">
       <g id="id45">
        <path fill="rgb(0,0,0)" stroke="none" d="M 16444,1693 L 16244,1693 16244,1941 16444,1941 16469,1939 16482,1938 16495,1935 16508,1932 16521,1928 16533,1923 16545,1916 16555,1909 16565,1900 16574,1890 16581,1878 16587,1865 16592,1851 16595,1835 16596,1817 16595,1805 16595,1797 16593,1788 16591,1778 16588,1767 16583,1757 16577,1746 16569,1736 16559,1726 16546,1717 16532,1709 16514,1703 16494,1698 16470,1694 16444,1693 Z M 16496,2055 L 16700,2369 16704,2376 16708,2383 16710,2390 16712,2397 16712,2403 16713,2410 16712,2416 16711,2422 16710,2428 16707,2433 16705,2438 16702,2442 16698,2446 16695,2449 16691,2452 16686,2454 16681,2459 16679,2461 16676,2462 16674,2464 16672,2465 16669,2466 16667,2467 16665,2467 16663,2468 16658,2468 16653,2468 16648,2468 16644,2468 16640,2468 16636,2467 16632,2466 16628,2465 16625,2463 16618,2460 16612,2456 16607,2452 16596,2445 16358,2069 16220,2069 16220,2416 16220,2423 16219,2430 16217,2436 16215,2442 16212,2447 16209,2452 16205,2457 16201,2461 16196,2465 16191,2468 16186,2471 16180,2474 16174,2476 16167,2477 16160,2478 16153,2478 16146,2478 16140,2477 16133,2476 16128,2474 16122,2471 16117,2468 16112,2465 16108,2461 16104,2457 16101,2452 16098,2447 16096,2442 16094,2436 16093,2430 16092,2423 16091,2416 16091,1641 16092,1634 16093,1627 16094,1621 16096,1615 16098,1610 16101,1605 16104,1600 16108,1596 16112,1592 16117,1589 16122,1586 16128,1583 16133,1582 16140,1580 16146,1579 16153,1579 16434,1579 16464,1580 16492,1583 16519,1588 16544,1595 16568,1604 16589,1615 16610,1627 16628,1642 16644,1658 16659,1676 16671,1695 16682,1717 16690,1739 16696,1764 16699,1790 16700,1817 16699,1844 16696,1869 16691,1892 16685,1914 16676,1934 16666,1952 16654,1968 16641,1983 16627,1996 16611,2009 16594,2019 16576,2029 16557,2037 16537,2044 16517,2050 16496,2055 Z"/>
       </g>
      </g>
      <g class="com.sun.star.drawing.PolyPolygonShape">
       <g id="id46">
        <path fill="rgb(0,0,0)" stroke="none" d="M 26469,1693 L 26269,1693 26269,1941 26469,1941 26494,1939 26507,1938 26520,1935 26533,1932 26546,1928 26558,1923 26570,1916 26580,1909 26590,1900 26599,1890 26606,1878 26612,1865 26617,1851 26620,1835 26621,1817 26621,1805 26620,1797 26618,1788 26616,1778 26613,1767 26608,1757 26602,1746 26594,1736 26584,1726 26571,1717 26557,1709 26539,1703 26519,1698 26495,1694 26469,1693 Z M 26535,2055 L 26749,2369 26751,2376 26752,2383 26753,2390 26753,2397 26753,2403 26752,2410 26751,2416 26749,2422 26747,2428 26745,2433 26742,2438 26739,2442 26735,2446 26731,2449 26726,2452 26721,2454 26719,2457 26717,2459 26715,2461 26713,2462 26711,2464 26708,2465 26706,2466 26704,2467 26701,2467 26698,2468 26693,2468 26688,2468 26683,2468 26678,2468 26674,2468 26670,2467 26667,2466 26663,2465 26660,2463 26657,2462 26654,2460 26648,2456 26643,2452 26639,2448 26635,2445 26392,2069 26254,2069 26254,2416 26254,2423 26253,2430 26252,2436 26250,2442 26248,2447 26245,2452 26242,2457 26238,2461 26234,2465 26229,2468 26224,2471 26218,2474 26212,2476 26206,2477 26200,2478 26193,2478 26186,2478 26179,2477 26172,2476 26166,2474 26160,2471 26155,2468 26150,2465 26145,2461 26141,2457 26137,2452 26134,2447 26131,2442 26129,2436 26127,2430 26126,2423 26126,2416 26126,1641 26126,1634 26127,1627 26129,1621 26131,1615 26134,1610 26137,1605 26141,1600 26145,1596 26150,1592 26155,1589 26160,1586 26166,1583 26172,1582 26179,1580 26186,1579 26193,1579 26469,1579 26499,1580 26528,1583 26555,1588 26580,1595 26604,1604 26626,1615 26646,1627 26664,1642 26680,1658 26695,1676 26707,1695 26717,1717 26725,1739 26730,1764 26734,1790 26735,1817 26734,1844 26731,1869 26726,1892 26719,1914 26711,1934 26701,1952 26689,1968 26676,1983 26662,1996 26647,2009 26630,2019 26613,2029 26594,2037 26575,2044 26555,2050 26535,2055 Z"/>
       </g>
      </g>
      <g class="com.sun.star.drawing.PolyPolygonShape">
       <g id="id47">
        <path fill="rgb(0,0,0)" stroke="none" d="M 29733,1693 L 29528,1693 29528,1941 29733,1941 29757,1939 29770,1938 29782,1935 29795,1932 29808,1928 29820,1923 29832,1916 29843,1909 29853,1900 29862,1890 29870,1878 29876,1865 29881,1851 29884,1835 29885,1817 29884,1805 29884,1797 29882,1788 29880,1778 29877,1767 29872,1757 29866,1746 29858,1736 29848,1726 29835,1717 29821,1709 29803,1703 29783,1698 29759,1694 29733,1693 Z M 29780,2055 L 29994,2369 29997,2376 29998,2383 29999,2390 30000,2397 30000,2403 29999,2410 29998,2416 29997,2422 29995,2428 29992,2433 29989,2438 29986,2442 29983,2446 29979,2449 29975,2452 29970,2454 29965,2459 29963,2461 29960,2462 29958,2464 29956,2465 29954,2466 29951,2467 29949,2467 29947,2468 29942,2468 29938,2468 29932,2468 29928,2468 29924,2468 29920,2467 29916,2466 29913,2465 29909,2463 29906,2462 29903,2460 29898,2456 29893,2452 29889,2448 29885,2445 29642,2069 29504,2069 29504,2416 29504,2423 29503,2430 29502,2436 29500,2442 29497,2447 29495,2452 29491,2457 29488,2461 29483,2465 29479,2468 29474,2471 29468,2474 29462,2476 29456,2477 29449,2478 29442,2478 29435,2478 29429,2477 29422,2476 29416,2474 29410,2471 29405,2468 29399,2465 29395,2461 29390,2457 29387,2452 29383,2447 29381,2442 29379,2436 29377,2430 29376,2423 29376,2416 29376,1641 29376,1634 29377,1627 29379,1621 29381,1615 29383,1610 29387,1605 29390,1600 29395,1596 29399,1592 29405,1589 29410,1586 29416,1583 29422,1582 29429,1580 29435,1579 29442,1579 29718,1579 29749,1580 29778,1583 29805,1588 29830,1595 29854,1604 29876,1615 29896,1627 29914,1642 29930,1658 29944,1676 29956,1695 29966,1717 29974,1739 29980,1764 29984,1790 29985,1817 29984,1844 29981,1869 29976,1892 29969,1914 29960,1934 29950,1952 29938,1968 29925,1983 29911,1996 29895,2009 29878,2019 29860,2029 29841,2037 29822,2044 29801,2050 29780,2055 Z"/>
       </g>
      </g>
      <g class="com.sun.star.drawing.PolyPolygonShape">
       <g id="id48">
        <path fill="rgb(0,0,0)" stroke="none" d="M 16838,1555 L 17457,1555 17464,1556 17471,1557 17477,1559 17483,1561 17489,1564 17494,1567 17499,1571 17504,1576 17509,1580 17513,1585 17521,1595 17527,1606 17533,1617 17533,1624 17532,1631 17531,1637 17529,1643 17526,1648 17524,1653 17520,1658 17516,1662 17512,1666 17508,1669 17502,1672 17497,1675 17491,1677 17485,1678 17478,1679 17471,1679 17214,1679 17214,2407 17214,2414 17213,2420 17212,2426 17210,2432 17208,2438 17205,2443 17201,2448 17198,2452 17193,2456 17189,2459 17184,2462 17178,2464 17172,2466 17166,2467 17159,2468 17152,2468 17146,2468 17139,2467 17133,2466 17127,2464 17121,2462 17116,2459 17112,2456 17107,2452 17103,2448 17100,2443 17097,2438 17095,2432 17093,2426 17092,2420 17091,2414 17091,2407 17091,1679 16838,1679 16831,1679 16825,1678 16819,1677 16813,1675 16807,1672 16802,1669 16797,1666 16793,1662 16789,1658 16786,1653 16783,1648 16781,1643 16779,1637 16778,1631 16777,1624 16777,1617 16777,1610 16778,1604 16779,1597 16781,1591 16783,1586 16786,1581 16789,1576 16793,1572 16797,1568 16802,1565 16807,1562 16813,1560 16819,1558 16825,1556 16831,1556 16838,1555 Z"/>
       </g>
      </g>
      <g class="com.sun.star.drawing.PolyPolygonShape">
       <g id="id49">
        <path fill="rgb(0,0,0)" stroke="none" d="M 22995,1555 L 23614,1555 23621,1556 23627,1557 23634,1559 23640,1561 23645,1564 23651,1567 23656,1571 23661,1576 23665,1580 23670,1585 23677,1595 23684,1606 23690,1617 23690,1624 23689,1631 23687,1637 23685,1643 23682,1648 23679,1653 23675,1658 23671,1662 23666,1666 23661,1669 23656,1672 23650,1675 23644,1677 23637,1678 23630,1679 23623,1679 23371,1679 23371,2407 23371,2414 23370,2420 23369,2426 23367,2432 23364,2438 23362,2443 23358,2448 23354,2452 23350,2456 23346,2459 23340,2462 23335,2464 23329,2466 23323,2467 23316,2468 23309,2468 23302,2468 23296,2467 23289,2466 23284,2464 23278,2462 23273,2459 23268,2456 23264,2452 23260,2448 23257,2443 23254,2438 23252,2432 23250,2426 23249,2420 23248,2414 23247,2407 23247,1679 22995,1679 22988,1679 22981,1678 22975,1677 22969,1675 22963,1672 22957,1669 22952,1666 22948,1662 22943,1658 22940,1653 22936,1648 22934,1643 22932,1637 22930,1631 22929,1624 22929,1617 22929,1610 22930,1604 22932,1597 22934,1591 22936,1586 22940,1581 22943,1576 22948,1572 22952,1568 22957,1565 22963,1562 22969,1560 22975,1558 22981,1556 22988,1556 22995,1555 Z"/>
       </g>
      </g>
      <g class="com.sun.star.drawing.PolyPolygonShape">
       <g id="id50">
        <path fill="rgb(0,0,0)" stroke="none" d="M 17671,2017 L 17673,2053 17677,2089 17685,2122 17696,2154 17709,2183 17726,2211 17744,2237 17766,2260 17789,2282 17815,2300 17844,2316 17874,2330 17906,2340 17940,2348 17976,2353 18014,2354 18053,2353 18090,2348 18125,2340 18158,2330 18188,2316 18216,2300 18242,2282 18265,2260 18286,2237 18304,2211 18320,2183 18333,2154 18343,2122 18350,2089 18355,2053 18356,2017 18354,1974 18348,1934 18338,1897 18325,1864 18309,1833 18291,1805 18269,1781 18246,1759 18220,1739 18193,1723 18165,1709 18135,1698 18105,1690 18075,1684 18044,1680 18014,1679 17976,1680 17940,1685 17906,1692 17874,1702 17844,1714 17815,1729 17789,1747 17766,1768 17744,1790 17726,1816 17709,1843 17696,1874 17685,1906 17677,1941 17673,1978 17671,2017 Z M 17547,2017 L 17550,1966 17556,1918 17567,1872 17581,1828 17599,1787 17622,1749 17647,1714 17676,1683 17708,1654 17744,1629 17782,1607 17823,1589 17867,1574 17914,1564 17963,1557 18014,1555 18065,1557 18114,1564 18160,1574 18204,1589 18245,1607 18284,1629 18319,1654 18351,1683 18380,1714 18406,1749 18428,1787 18446,1828 18461,1872 18471,1918 18478,1966 18480,2017 18478,2065 18471,2112 18461,2156 18446,2199 18428,2240 18406,2278 18380,2313 18351,2345 18319,2375 18284,2401 18245,2424 18204,2443 18160,2458 18114,2469 18065,2476 18014,2478 17963,2476 17914,2469 17867,2458 17823,2443 17782,2424 17744,2401 17708,2375 17676,2345 17647,2313 17622,2278 17599,2240 17581,2199 17567,2156 17556,2112 17550,2065 17547,2017 Z"/>
       </g>
      </g>
      <g class="com.sun.star.drawing.PolyPolygonShape">
       <g id="id51">
        <path fill="rgb(0,0,0)" stroke="none" d="M 18732,2017 L 18734,2053 18739,2089 18746,2122 18757,2154 18771,2183 18787,2211 18806,2237 18828,2260 18851,2282 18877,2300 18906,2316 18936,2330 18968,2340 19002,2348 19038,2353 19075,2354 19112,2353 19147,2348 19181,2340 19214,2330 19244,2316 19272,2300 19298,2282 19322,2260 19343,2237 19362,2211 19379,2183 19392,2154 19403,2122 19411,2089 19416,2053 19417,2017 19415,1974 19409,1934 19400,1897 19387,1864 19371,1833 19353,1805 19332,1781 19308,1759 19283,1739 19256,1723 19228,1709 19198,1698 19168,1690 19137,1684 19106,1680 19075,1679 19038,1680 19003,1685 18969,1692 18937,1702 18907,1714 18878,1729 18852,1747 18828,1768 18807,1790 18788,1816 18771,1843 18758,1874 18747,1906 18739,1941 18734,1978 18732,2017 Z M 18608,2017 L 18611,1966 18617,1918 18628,1872 18642,1828 18661,1787 18683,1749 18709,1714 18738,1683 18770,1654 18806,1629 18844,1607 18885,1589 18929,1574 18975,1564 19024,1557 19075,1555 19124,1557 19171,1564 19216,1574 19259,1589 19299,1607 19337,1629 19372,1654 19404,1683 19433,1714 19460,1749 19482,1787 19502,1828 19517,1872 19529,1918 19537,1966 19541,2017 19539,2065 19532,2112 19521,2156 19506,2199 19486,2240 19464,2278 19437,2313 19408,2345 19375,2375 19339,2401 19301,2424 19260,2443 19217,2458 19171,2469 19124,2476 19075,2478 19024,2476 18975,2469 18929,2458 18885,2443 18844,2424 18806,2401 18770,2375 18738,2345 18709,2313 18683,2278 18661,2240 18642,2199 18628,2156 18617,2112 18611,2065 18608,2017 Z"/>
       </g>
      </g>
      <g class="com.sun.star.drawing.PolyPolygonShape">
       <g id="id52">
        <path fill="rgb(0,0,0)" stroke="none" d="M 25179,2017 L 25181,2053 25186,2089 25193,2122 25204,2154 25218,2183 25234,2211 25253,2237 25275,2260 25298,2282 25324,2300 25353,2316 25383,2330 25415,2340 25449,2348 25485,2353 25522,2354 25559,2353 25595,2348 25628,2340 25661,2330 25691,2316 25719,2300 25745,2282 25769,2260 25790,2237 25809,2211 25826,2183 25839,2154 25850,2122 25858,2089 25863,2053 25864,2017 25862,1974 25856,1934 25847,1897 25834,1864 25818,1833 25800,1805 25779,1781 25755,1759 25730,1739 25703,1723 25675,1709 25646,1698 25615,1690 25584,1684 25553,1680 25522,1679 25484,1680 25448,1685 25414,1692 25382,1702 25352,1714 25323,1729 25297,1747 25274,1768 25252,1790 25234,1816 25217,1843 25204,1874 25193,1906 25185,1941 25181,1978 25179,2017 Z M 25055,2017 L 25058,1966 25064,1918 25075,1872 25090,1828 25108,1787 25130,1749 25156,1714 25185,1683 25217,1654 25253,1629 25291,1607 25332,1589 25376,1574 25422,1564 25471,1557 25522,1555 25572,1557 25621,1564 25667,1574 25711,1589 25752,1607 25791,1629 25826,1654 25858,1683 25888,1714 25913,1749 25935,1787 25954,1828 25969,1872 25979,1918 25986,1966 25988,2017 25986,2065 25979,2112 25968,2156 25953,2199 25934,2240 25911,2278 25884,2313 25855,2345 25822,2375 25786,2401 25748,2424 25707,2443 25664,2458 25618,2469 25571,2476 25522,2478 25471,2476 25422,2469 25376,2458 25332,2443 25291,2424 25253,2401 25217,2375 25185,2345 25156,2313 25130,2278 25108,2240 25090,2199 25075,2156 25064,2112 25058,2065 25055,2017 Z"/>
       </g>
      </g>
      <g class="com.sun.star.drawing.PolyPolygonShape">
       <g id="id53">
        <path fill="rgb(0,0,0)" stroke="none" d="M 28429,2017 L 28430,2053 28435,2089 28443,2122 28454,2154 28467,2183 28483,2211 28502,2237 28523,2260 28547,2282 28573,2300 28601,2316 28632,2330 28664,2340 28698,2348 28734,2353 28771,2354 28811,2353 28848,2348 28883,2340 28917,2330 28948,2316 28976,2300 29002,2282 29026,2260 29047,2237 29065,2211 29080,2183 29093,2154 29102,2122 29108,2089 29110,2053 29109,2017 29107,1974 29101,1934 29092,1897 29079,1864 29063,1833 29045,1805 29024,1781 29001,1759 28976,1739 28949,1723 28921,1709 28892,1698 28863,1690 28832,1684 28802,1680 28771,1679 28734,1680 28698,1685 28664,1692 28632,1702 28601,1714 28573,1729 28547,1747 28523,1768 28502,1790 28483,1816 28467,1843 28454,1874 28443,1906 28435,1941 28430,1978 28429,2017 Z M 28300,2017 L 28303,1966 28309,1918 28320,1872 28335,1828 28353,1787 28375,1749 28401,1714 28431,1683 28463,1654 28499,1629 28538,1607 28579,1589 28624,1574 28671,1564 28720,1557 28771,1555 28822,1557 28871,1564 28917,1574 28961,1589 29002,1607 29040,1629 29076,1654 29108,1683 29137,1714 29163,1749 29185,1787 29204,1828 29218,1872 29229,1918 29236,1966 29238,2017 29235,2065 29229,2112 29218,2156 29202,2199 29183,2240 29160,2278 29134,2313 29104,2345 29072,2375 29036,2401 28998,2424 28957,2443 28913,2458 28868,2469 28821,2476 28771,2478 28720,2476 28671,2469 28624,2458 28579,2443 28538,2424 28499,2401 28463,2375 28431,2345 28401,2313 28375,2278 28353,2240 28335,2199 28320,2156 28309,2112 28303,2065 28300,2017 Z"/>
       </g>
      </g>
      <g class="com.sun.star.drawing.PolyPolygonShape">
       <g id="id54">
        <path fill="rgb(0,0,0)" stroke="none" d="M 31284,1979 L 31322,1979 31328,1981 31334,1984 31337,1986 31339,1988 31342,1990 31344,1993 31345,1996 31347,2000 31350,2010 31352,2023 31354,2039 31355,2086 31355,2155 31350,2378 31350,2383 31350,2388 31349,2392 31348,2396 31347,2400 31345,2403 31343,2407 31341,2410 31339,2412 31337,2415 31332,2420 31322,2430 31281,2447 31241,2460 31201,2471 31163,2479 31126,2485 31090,2489 31055,2492 31022,2492 30973,2490 30925,2483 30880,2472 30836,2457 30795,2438 30756,2415 30720,2389 30687,2360 30656,2327 30630,2292 30606,2254 30587,2213 30572,2171 30560,2126 30553,2079 30551,2031 30553,1980 30560,1932 30570,1885 30585,1842 30604,1801 30626,1762 30652,1727 30681,1694 30714,1665 30750,1640 30788,1617 30830,1599 30874,1584 30921,1574 30970,1567 31022,1565 31055,1566 31090,1569 31127,1575 31164,1583 31200,1594 31235,1607 31268,1623 31283,1631 31298,1641 31305,1646 31310,1650 31315,1656 31320,1661 31323,1667 31326,1672 31328,1678 31329,1684 31330,1690 31330,1695 31330,1701 31329,1706 31328,1712 31326,1717 31324,1722 31322,1727 31317,1733 31312,1739 31307,1744 31302,1748 31296,1752 31290,1755 31285,1757 31279,1759 31273,1760 31267,1760 31262,1760 31256,1760 31251,1759 31246,1758 31241,1757 31236,1755 31212,1741 31185,1729 31157,1719 31129,1710 31101,1703 31073,1698 31046,1694 31022,1693 30988,1694 30955,1698 30922,1704 30890,1713 30859,1724 30830,1737 30802,1754 30776,1773 30752,1795 30730,1820 30711,1847 30695,1878 30683,1911 30673,1948 30667,1988 30665,2031 30667,2072 30674,2110 30684,2145 30697,2178 30714,2208 30734,2236 30756,2261 30781,2284 30808,2303 30836,2321 30865,2335 30896,2347 30927,2357 30959,2363 30991,2367 31022,2369 31053,2368 31083,2366 31111,2363 31138,2359 31164,2353 31189,2347 31213,2339 31236,2331 31236,2102 31070,2102 31063,2102 31056,2101 31050,2100 31044,2098 31038,2096 31033,2093 31029,2089 31024,2086 31021,2081 31017,2077 31014,2072 31012,2066 31010,2060 31009,2054 31008,2047 31008,2040 31008,2033 31009,2027 31010,2021 31012,2015 31014,2009 31017,2004 31021,1999 31024,1995 31029,1991 31033,1988 31038,1985 31044,1983 31050,1981 31056,1980 31063,1979 31070,1979 31284,1979 Z"/>
       </g>
      </g>
      <g class="com.sun.star.drawing.PolyPolygonShape">
       <g id="id55">
        <path fill="rgb(0,0,0)" stroke="none" d="M 20302,1603 L 20303,1596 20303,1589 20305,1583 20307,1577 20309,1572 20312,1567 20315,1562 20319,1558 20323,1554 20328,1551 20333,1548 20338,1545 20344,1543 20351,1542 20357,1541 20364,1541 20371,1541 20378,1542 20384,1543 20390,1545 20395,1548 20400,1551 20405,1554 20409,1558 20413,1562 20416,1567 20419,1572 20422,1577 20424,1583 20425,1589 20426,1596 20426,1603 20426,2392 20425,2406 20425,2412 20424,2418 20423,2424 20421,2429 20419,2435 20416,2439 20414,2444 20410,2448 20406,2452 20402,2456 20397,2459 20391,2463 20385,2466 20378,2468 20371,2470 20364,2471 20357,2471 20350,2470 20343,2469 20336,2467 20329,2465 20322,2462 20309,2455 20297,2448 20285,2439 20274,2430 19793,1765 19793,2407 19793,2414 19792,2420 19791,2426 19789,2432 19786,2438 19784,2443 19780,2448 19776,2452 19772,2456 19768,2459 19763,2462 19757,2464 19751,2466 19745,2467 19738,2468 19731,2468 19724,2468 19718,2467 19711,2466 19706,2464 19700,2462 19695,2459 19690,2456 19686,2452 19682,2448 19679,2443 19676,2438 19674,2432 19672,2426 19671,2420 19670,2414 19669,2407 19669,1655 19670,1648 19671,1641 19672,1634 19674,1627 19676,1620 19679,1614 19682,1607 19686,1601 19690,1595 19695,1590 19700,1584 19706,1580 19711,1575 19718,1571 19724,1568 19731,1565 19738,1563 19745,1562 19751,1561 19757,1561 19763,1561 19769,1562 19775,1563 19780,1564 19785,1566 19791,1568 19796,1571 19801,1574 19811,1580 19822,1589 19822,1590 19823,1591 19825,1596 19835,1611 19872,1663 19996,1832 20302,2254 20302,1603 Z"/>
       </g>
      </g>
      <g class="com.sun.star.drawing.PolyPolygonShape">
       <g id="id56">
        <path fill="rgb(0,0,0)" stroke="none" d="M 21868,1627 L 21868,1620 21869,1613 21870,1607 21872,1601 21874,1595 21877,1590 21880,1586 21884,1581 21889,1578 21893,1574 21898,1571 21904,1569 21910,1567 21916,1566 21923,1565 21929,1565 21936,1565 21943,1566 21950,1567 21956,1569 21962,1571 21967,1574 21972,1578 21977,1581 21981,1586 21985,1590 21988,1595 21991,1601 21993,1607 21995,1613 21996,1620 21996,1627 21996,2392 21996,2399 21995,2406 21995,2412 21993,2418 21992,2424 21990,2429 21987,2435 21984,2439 21981,2444 21977,2448 21973,2452 21968,2456 21963,2459 21957,2463 21951,2466 21944,2468 21937,2470 21930,2471 21922,2471 21915,2470 21908,2469 21902,2467 21895,2465 21888,2462 21882,2459 21876,2455 21864,2448 21853,2439 21844,2430 21363,1765 21363,2407 21363,2414 21362,2420 21361,2426 21359,2432 21357,2438 21354,2443 21350,2448 21347,2452 21342,2456 21338,2459 21333,2462 21327,2464 21321,2466 21315,2467 21308,2468 21301,2468 21294,2468 21288,2467 21281,2466 21275,2464 21269,2462 21264,2459 21259,2456 21254,2452 21250,2448 21246,2443 21243,2438 21240,2432 21238,2426 21236,2420 21235,2414 21235,2407 21235,1655 21235,1648 21236,1641 21238,1634 21240,1627 21243,1620 21246,1614 21250,1607 21254,1601 21259,1595 21264,1590 21269,1584 21275,1580 21281,1575 21288,1571 21294,1568 21301,1565 21308,1563 21315,1562 21321,1561 21328,1561 21333,1561 21339,1562 21344,1563 21350,1564 21355,1566 21360,1568 21364,1571 21369,1574 21374,1577 21378,1580 21387,1589 21387,1590 21388,1591 21391,1596 21400,1611 21437,1663 21561,1832 21868,2254 21868,1627 Z"/>
       </g>
      </g>
      <g class="com.sun.star.drawing.PolyPolygonShape">
       <g id="id57">
        <path fill="rgb(0,0,0)" stroke="none" d="M 32549,1627 L 32550,1620 32550,1613 32552,1607 32554,1601 32556,1595 32559,1590 32562,1586 32566,1581 32570,1578 32575,1574 32580,1571 32585,1569 32591,1567 32598,1566 32604,1565 32611,1565 32618,1565 32625,1566 32631,1567 32638,1569 32643,1571 32649,1574 32654,1578 32659,1581 32663,1586 32667,1590 32670,1595 32673,1601 32675,1607 32676,1613 32677,1620 32678,1627 32678,2392 32678,2399 32677,2406 32676,2412 32675,2418 32673,2424 32671,2429 32669,2435 32666,2439 32662,2444 32659,2448 32654,2452 32650,2456 32644,2459 32639,2463 32632,2466 32625,2468 32618,2470 32611,2471 32604,2471 32597,2470 32590,2469 32583,2467 32577,2465 32570,2462 32564,2459 32558,2455 32546,2448 32535,2439 32525,2430 32045,1765 32045,2407 32045,2414 32044,2420 32042,2426 32041,2432 32038,2438 32035,2443 32032,2448 32028,2452 32024,2456 32019,2459 32014,2462 32009,2464 32003,2466 31997,2467 31990,2468 31983,2468 31976,2468 31969,2467 31963,2466 31957,2464 31951,2462 31945,2459 31940,2456 31935,2452 31931,2448 31927,2443 31924,2438 31922,2432 31919,2426 31918,2420 31917,2414 31916,2407 31916,1655 31917,1648 31918,1641 31919,1634 31922,1627 31924,1620 31927,1614 31931,1607 31935,1601 31940,1595 31945,1590 31951,1584 31957,1580 31963,1575 31969,1571 31976,1568 31983,1565 31990,1563 31997,1562 32003,1561 32009,1561 32015,1561 32021,1562 32026,1563 32031,1564 32036,1566 32041,1568 32046,1571 32051,1574 32055,1577 32060,1580 32069,1589 32069,1590 32070,1591 32072,1596 32082,1611 32119,1663 32243,1832 32549,2254 32549,1627 Z"/>
       </g>
      </g>
      <g class="com.sun.star.drawing.PolyPolygonShape">
       <g id="id58">
        <path fill="rgb(0,0,0)" stroke="none" d="M 22362,2345 L 22791,2345 22798,2345 22804,2346 22811,2347 22816,2349 22822,2351 22827,2354 22832,2356 22836,2360 22840,2363 22843,2367 22846,2371 22848,2375 22850,2379 22851,2384 22852,2388 22853,2392 22852,2399 22851,2406 22850,2412 22848,2418 22846,2424 22843,2429 22840,2433 22836,2438 22832,2441 22827,2445 22822,2448 22816,2450 22811,2452 22804,2453 22798,2454 22791,2454 22301,2454 22294,2454 22287,2453 22280,2452 22274,2450 22268,2448 22263,2445 22258,2441 22253,2438 22249,2433 22245,2429 22242,2424 22239,2418 22237,2412 22235,2406 22234,2399 22234,2392 22234,1617 22234,1610 22235,1604 22237,1597 22239,1591 22242,1586 22245,1581 22249,1576 22253,1572 22258,1568 22263,1565 22268,1562 22274,1560 22280,1558 22287,1556 22294,1556 22301,1555 22776,1555 22783,1556 22790,1556 22797,1558 22803,1560 22809,1562 22814,1565 22819,1568 22824,1572 22828,1576 22832,1581 22835,1586 22838,1591 22840,1597 22842,1604 22843,1610 22843,1617 22843,1624 22842,1631 22840,1637 22838,1643 22835,1648 22832,1653 22828,1658 22824,1662 22819,1666 22814,1669 22809,1672 22803,1675 22797,1677 22790,1678 22783,1679 22776,1679 22362,1679 22362,1931 22729,1931 22736,1931 22742,1932 22749,1933 22755,1935 22760,1938 22765,1941 22770,1944 22774,1948 22778,1952 22781,1957 22784,1962 22786,1967 22788,1973 22790,1979 22790,1986 22791,1993 22790,2000 22790,2006 22788,2013 22786,2019 22784,2024 22781,2029 22778,2034 22774,2038 22770,2042 22765,2045 22760,2048 22755,2050 22749,2052 22742,2054 22736,2054 22729,2055 22362,2055 22362,2345 Z"/>
       </g>
      </g>
      <g class="com.sun.star.drawing.PolyPolygonShape">
       <g id="id59">
        <path fill="rgb(0,0,0)" stroke="none" d="M 24865,1603 L 24867,1598 24870,1594 24872,1590 24876,1586 24879,1582 24883,1578 24888,1574 24892,1571 24898,1569 24903,1566 24909,1565 24915,1563 24921,1563 24927,1563 24934,1563 24941,1565 24948,1568 24954,1571 24960,1574 24965,1577 24969,1581 24973,1584 24976,1588 24978,1592 24980,1596 24982,1600 24982,1605 24983,1609 24983,1613 24982,1618 24981,1622 24979,1627 24936,1795 24866,2043 24765,2392 24763,2399 24759,2406 24756,2412 24751,2418 24747,2424 24741,2429 24736,2433 24730,2438 24724,2441 24717,2445 24710,2448 24703,2450 24696,2452 24689,2453 24682,2454 24675,2454 24668,2454 24661,2453 24655,2452 24649,2450 24643,2448 24638,2445 24633,2441 24628,2438 24623,2433 24619,2429 24615,2424 24611,2418 24608,2412 24605,2406 24599,2392 24399,1765 24385,1793 24194,2392 24189,2406 24184,2418 24178,2428 24172,2436 24166,2444 24159,2450 24152,2455 24145,2459 24139,2462 24132,2464 24126,2466 24121,2467 24115,2468 24111,2468 24104,2468 24097,2468 24090,2467 24084,2466 24078,2464 24072,2462 24067,2459 24062,2456 24057,2452 24052,2448 24048,2443 24044,2438 24040,2432 24037,2426 24034,2420 24028,2407 24024,2388 24016,2357 23990,2264 23916,2010 23842,1762 23816,1678 23804,1641 23802,1634 23800,1627 23799,1621 23799,1615 23799,1609 23800,1604 23801,1599 23804,1594 23806,1589 23810,1585 23814,1581 23818,1577 23823,1574 23829,1571 23835,1568 23842,1565 23849,1563 23856,1562 23862,1562 23868,1561 23874,1562 23879,1563 23884,1564 23889,1566 23894,1569 23898,1572 23902,1575 23906,1580 23909,1584 23912,1590 23916,1596 23918,1603 24104,2254 24187,1999 24230,1870 24270,1755 24308,1627 24311,1618 24315,1610 24319,1603 24323,1597 24328,1591 24333,1586 24338,1582 24343,1578 24348,1575 24354,1572 24359,1570 24365,1568 24370,1566 24375,1566 24380,1565 24385,1565 24392,1563 24398,1563 24405,1563 24411,1564 24416,1565 24422,1567 24427,1570 24432,1573 24436,1577 24440,1581 24444,1586 24448,1592 24452,1597 24455,1604 24461,1617 24489,1701 24548,1877 24675,2269 24865,1603 Z"/>
       </g>
      </g>
      <g class="com.sun.star.drawing.PolyPolygonShape">
       <g id="id60">
        <path fill="rgb(0,0,0)" stroke="none" d="M 30223,1617 L 30223,1610 30224,1604 30225,1597 30228,1591 30230,1586 30234,1581 30237,1576 30242,1572 30246,1568 30251,1565 30257,1562 30263,1560 30269,1558 30275,1556 30282,1556 30289,1555 30296,1556 30303,1556 30309,1558 30315,1560 30320,1562 30326,1565 30330,1568 30334,1572 30338,1576 30342,1581 30344,1586 30347,1591 30349,1597 30350,1604 30351,1610 30351,1617 30351,2407 30351,2414 30350,2420 30349,2426 30347,2432 30344,2438 30342,2443 30338,2448 30334,2452 30330,2456 30326,2459 30320,2462 30315,2464 30309,2466 30303,2467 30296,2468 30289,2468 30282,2468 30275,2467 30269,2466 30263,2464 30257,2462 30251,2459 30246,2456 30242,2452 30237,2448 30234,2443 30230,2438 30228,2432 30225,2426 30224,2420 30223,2414 30223,2407 30223,1617 Z"/>
       </g>
      </g>
      <g class="com.sun.star.drawing.PolyPolygonShape">
       <g id="id61">
        <path fill="rgb(0,0,0)" stroke="none" d="M 33939,2331 L 34281,2331 34288,2331 34295,2332 34301,2333 34307,2335 34312,2337 34317,2340 34322,2343 34326,2347 34330,2351 34333,2356 34336,2361 34339,2367 34341,2373 34342,2379 34343,2385 34343,2392 34343,2399 34342,2406 34341,2412 34339,2418 34336,2424 34333,2429 34330,2433 34326,2438 34322,2441 34317,2445 34312,2448 34307,2450 34301,2452 34295,2453 34288,2454 34281,2454 33877,2454 33870,2454 33863,2453 33857,2452 33851,2450 33846,2448 33840,2445 33836,2441 33832,2438 33828,2433 33824,2429 33822,2424 33819,2418 33817,2412 33816,2406 33815,2399 33815,2392 33815,1617 33815,1610 33816,1604 33817,1597 33819,1591 33822,1586 33824,1581 33828,1576 33832,1572 33836,1568 33840,1565 33846,1562 33851,1560 33857,1558 33863,1556 33870,1556 33877,1555 33884,1556 33890,1556 33897,1558 33902,1560 33908,1562 33913,1565 33918,1568 33922,1572 33926,1576 33929,1581 33932,1586 33934,1591 33936,1597 33937,1604 33938,1610 33939,1617 33939,2331 Z"/>
       </g>
      </g>
      <g class="com.sun.star.drawing.PolyPolygonShape">
       <g id="id62">
        <path fill="rgb(0,0,0)" stroke="none" d="M 31564,1617 L 31565,1610 31565,1604 31567,1597 31569,1591 31571,1586 31574,1581 31577,1576 31581,1572 31585,1568 31590,1565 31595,1562 31600,1560 31606,1558 31613,1556 31619,1556 31626,1555 31631,1556 31635,1556 31640,1558 31645,1560 31649,1562 31654,1565 31658,1568 31662,1572 31667,1576 31671,1581 31674,1586 31678,1591 31681,1597 31684,1604 31686,1610 31688,1617 31688,2407 31688,2414 31687,2420 31686,2426 31684,2432 31681,2438 31679,2443 31675,2448 31671,2452 31667,2456 31663,2459 31657,2462 31652,2464 31646,2466 31640,2467 31633,2468 31626,2468 31619,2468 31613,2467 31606,2466 31600,2464 31595,2462 31590,2459 31585,2456 31581,2452 31577,2448 31574,2443 31571,2438 31569,2432 31567,2426 31565,2420 31565,2414 31564,2407 31564,1617 Z"/>
       </g>
      </g>
      <g class="com.sun.star.drawing.PolyPolygonShape">
       <g id="id63">
        <path fill="rgb(0,0,0)" stroke="none" d="M 27230,1979 L 27596,2345 27600,2349 27604,2354 27607,2360 27610,2365 27612,2370 27613,2376 27614,2382 27614,2388 27614,2393 27613,2399 27612,2405 27610,2410 27607,2416 27604,2421 27600,2426 27596,2430 27594,2433 27591,2435 27588,2437 27586,2439 27583,2440 27580,2441 27578,2442 27575,2443 27573,2444 27571,2444 27566,2444 27562,2445 27558,2445 27553,2445 27548,2444 27542,2444 27540,2444 27537,2443 27535,2442 27533,2441 27530,2440 27528,2439 27526,2437 27524,2435 27522,2433 27520,2430 27063,1979 27063,2392 27063,2399 27062,2406 27061,2412 27059,2418 27057,2424 27054,2429 27050,2433 27047,2438 27042,2441 27038,2445 27033,2448 27027,2450 27021,2452 27015,2453 27008,2454 27001,2454 26995,2454 26988,2453 26982,2452 26976,2450 26970,2448 26965,2445 26961,2441 26956,2438 26952,2433 26949,2429 26946,2424 26944,2418 26942,2412 26941,2406 26940,2399 26940,2392 26940,1603 26940,1596 26941,1589 26942,1583 26944,1577 26946,1572 26949,1567 26952,1562 26956,1558 26961,1554 26965,1551 26970,1548 26976,1545 26982,1543 26988,1542 26995,1541 27001,1541 27008,1541 27015,1542 27021,1543 27027,1545 27033,1548 27038,1551 27042,1554 27047,1558 27050,1562 27054,1567 27057,1572 27059,1577 27061,1583 27062,1589 27063,1596 27063,1603 27063,1955 27492,1579 27497,1575 27503,1571 27508,1568 27514,1566 27520,1564 27526,1562 27532,1562 27539,1561 27545,1562 27550,1562 27556,1564 27562,1566 27567,1568 27572,1571 27577,1575 27582,1579 27586,1584 27590,1589 27593,1594 27595,1599 27597,1605 27599,1610 27600,1616 27600,1622 27600,1628 27599,1633 27597,1639 27595,1645 27593,1650 27590,1655 27586,1660 27582,1665 27230,1979 Z"/>
       </g>
      </g>
      <g class="com.sun.star.drawing.PolyPolygonShape">
       <g id="id64">
        <path fill="rgb(0,0,0)" stroke="none" d="M 12970,2117 L 13299,2117 13132,1741 13099,1822 13060,1914 12970,2117 Z M 13208,1617 L 13565,2378 13566,2384 13567,2389 13567,2395 13566,2401 13565,2407 13563,2412 13561,2418 13558,2423 13555,2429 13552,2433 13548,2438 13544,2442 13540,2446 13536,2449 13531,2452 13527,2454 13521,2456 13516,2458 13510,2458 13504,2458 13499,2457 13493,2456 13487,2454 13482,2451 13476,2448 13472,2445 13467,2441 13463,2436 13459,2432 13456,2427 13453,2421 13451,2416 13451,2416 13360,2231 12918,2231 12832,2430 12832,2430 12829,2435 12826,2439 12822,2443 12818,2446 12813,2449 12808,2452 12803,2455 12798,2457 12792,2458 12787,2459 12781,2460 12776,2460 12771,2459 12766,2458 12761,2457 12756,2454 12749,2452 12743,2449 12737,2446 12732,2442 12728,2438 12724,2433 12720,2429 12717,2423 12715,2418 12714,2412 12713,2407 12713,2401 12713,2395 12714,2389 12716,2384 12718,2378 12718,2378 12718,2378 12718,2378 12718,2378 12718,2377 12719,2374 12722,2366 12733,2339 12771,2251 12887,1992 13003,1737 13041,1652 13052,1627 13055,1620 13056,1618 13056,1617 13059,1610 13062,1604 13065,1598 13068,1593 13072,1588 13076,1584 13080,1580 13085,1577 13090,1574 13095,1571 13100,1569 13106,1568 13112,1566 13118,1565 13125,1565 13132,1565 13132,1565 13139,1565 13146,1566 13152,1567 13159,1569 13165,1571 13170,1574 13176,1577 13181,1580 13185,1584 13190,1588 13194,1592 13198,1597 13201,1602 13204,1607 13206,1612 13208,1617 Z"/>
       </g>
      </g>
     </g>
    </g>
   </g>
  </g>
 </g>
</svg>